<?xml version="1.0" standalone="no"?>
<!DOCTYPE svg PUBLIC "-//W3C//DTD SVG 1.1//EN" "http://www.w3.org/Graphics/SVG/1.1/DTD/svg11.dtd" >
<svg xmlns="http://www.w3.org/2000/svg">
<metadata>
Created by FontPrep 20130207 at Sun Jul  6 13:39:48 2014
 By Michael Ball
Copyright (c) 2004 by Magenta/ 2008 by George Triantafyllakos. Released under the SIL Open Font License (OFL).
</metadata>
<defs>
<font id="5cf12767414af0d7b046743a9a0ee09d" horiz-adv-x='1024' >
  <font-face 
    font-family="BPreplay"
    font-weight="400"
    font-stretch="normal"
    units-per-em="2048"
    panose-1="2 0 5 3 0 0 0 2 0 4"
    ascent="1638"
    descent="-410"
    x-height="1135"
    cap-height="1520"
    bbox="-158 -502 2310 2132"
    underline-thickness="102"
    underline-position="-153"
    unicode-range="U+0020-2260"
  />
<missing-glyph horiz-adv-x="491" 
 />
    <glyph glyph-name=".notdef" horiz-adv-x="491" 
 />
    <glyph glyph-name=".null" horiz-adv-x="0" 
 />
    <glyph glyph-name="nonmarkingreturn" horiz-adv-x="681" 
 />
    <glyph glyph-name="space" unicode=" " horiz-adv-x="491" 
 />
    <glyph glyph-name="exclam" unicode="!" horiz-adv-x="438" 
d="M119 102q0 43 29 73q30 30 73 30t73 -30t30 -73q0 -42 -30 -72t-73 -30t-73 30t-29 72zM293 1485v-1114q0 -76 -75 -76t-75 76v1114q0 88 75 88t75 -88z" />
    <glyph glyph-name="quotedbl" unicode="&#x22;" horiz-adv-x="679" 
d="M403 1186v301q0 88 78 88t78 -88v-301q0 -80 -78 -80t-78 80zM119 1186v301q0 88 75 88t74 -88v-301q0 -80 -74 -80t-75 80z" />
    <glyph glyph-name="numbersign" unicode="#" horiz-adv-x="1230" 
d="M788 928h-286l-51 -332h288zM160 457q-94 0 -94 69q0 35 27 53q28 17 61 17h163l52 332h-152q-78 0 -78 69q0 64 78 64h168l57 434q8 76 66 76q28 -1 50 -21t22 -47v-8l-62 -434h287l61 434q10 78 66 78q29 1 48 -19t19 -49v-10l-57 -434h143q33 -1 57 -17t23 -49
q0 -68 -90 -67h-149l-52 -332h148q74 0 74 -70q0 -33 -26 -51t-56 -18h-156l-55 -357q-14 -100 -88 -100q-49 0 -49 55l57 402h-289l-51 -357q-14 -100 -88 -100q-51 0 -51 55l57 402h-141z" />
    <glyph glyph-name="dollar" unicode="$" horiz-adv-x="1040" 
d="M244 1188q0 -88 64 -153q65 -64 155 -91v483q-99 -18 -159 -85q-60 -66 -60 -154zM805 434q0 209 -256 295v-588q109 21 183 103t73 190zM463 1655q0 66 43 65q43 0 43 -61v-82q94 -2 213 -53t119 -126t-70 -75q-23 0 -113 50t-149 54v-516q186 -61 306 -179t120 -292
t-127 -307t-299 -133q0 -49 1 -102t-42 -54q-45 0 -49 62l4 94q-109 8 -227 51t-119 109q0 36 20 60t53 24t126 -45t147 -49v612q-166 43 -277 146q-110 103 -110 259t114 272q115 115 273 138v78z" />
    <glyph glyph-name="percent" unicode="%" horiz-adv-x="1566" 
d="M487 -31q-23 -1 -39 19t-16 45t6 39l557 1429q25 61 80 62q27 1 44 -19q35 -40 5 -100l-571 -1444q-10 -31 -66 -31zM203 1196q-1 -104 53 -184t151 -80t152 76t55 184t-57 186q-57 76 -152 76t-149 -77t-53 -181zM745 1190q1 -158 -91 -266t-247 -109q-155 0 -249 115
q-94 114 -94 274t92 263q94 103 249 103t247 -110q92 -112 93 -270zM961 376q0 -106 53 -184t152 -77q99 0 153 74q53 75 53 179t-55 188q-55 83 -151 83t-150 -78q-55 -79 -55 -185zM821 384q0 160 94 266t249 106t246 -114t91 -272t-89 -264t-246 -106t-251 112t-94 272z
" />
    <glyph glyph-name="ampersand" unicode="&#x26;" horiz-adv-x="1435" 
d="M227 424q0 -135 112 -228t253 -94q228 0 371 236l-441 489q-295 -195 -295 -403zM590 -43q-236 0 -374 132t-138 337q0 287 360 518q-150 156 -150 306t95 236q94 86 217 85q123 0 208 -81t85 -242t-217 -337l385 -438l123 205q45 80 102 80q70 0 70 -75q0 -38 -31 -87
l-166 -250l191 -209q18 -23 18 -53t-24 -58q-24 -26 -56 -26t-55 20l-189 201q-176 -264 -454 -264zM748 1276q0 78 -44 118t-106 40t-108 -40t-46 -112q1 -139 138 -264q166 127 166 258z" />
    <glyph glyph-name="quotesingle" unicode="'" horiz-adv-x="456" 
d="M170 1092q-30 0 -56 20t-26 42t4 36l125 309q31 76 92 76q33 0 59 -25q40 -39 15 -102l-133 -301q-25 -55 -80 -55z" />
    <glyph glyph-name="parenleft" unicode="(" horiz-adv-x="557" 
d="M92 721q0 488 291 805q29 22 57 22t48 -19t20 -47t-25 -57q-248 -293 -247 -714q0 -211 61 -411t192 -335q40 -64 0 -102q-18 -19 -50 -19t-60 29q-145 145 -216 375t-71 473z" />
    <glyph glyph-name="parenright" unicode=")" horiz-adv-x="557" 
d="M465 721q0 -242 -71 -472t-216 -376q-28 -29 -60 -29t-50 18t-19 48q0 29 19 55q131 135 192 335t62 411q0 422 -248 714q-25 29 -25 57q-1 28 19 47t48 19t58 -22q291 -317 291 -805z" />
    <glyph glyph-name="asterisk" unicode="*" horiz-adv-x="915" 
d="M127 1318q0 26 18 44q17 18 33 18t33 -4l205 -133l-13 240q13 57 61 57t62 -51l-14 -246l195 125q15 10 37 10t40 -17t18 -45t-30 -52l-213 -107l209 -102q35 -17 35 -49q-1 -32 -19 -49t-38 -17t-35 6l-199 119l14 -219q0 -33 -18 -50q-18 -18 -42 -18t-42 16t-21 46
l11 225l-199 -123q-16 -4 -34 -4t-36 17t-18 43t23 49l210 110l-206 111q-27 24 -27 50z" />
    <glyph glyph-name="plus" unicode="+" horiz-adv-x="1243" 
d="M162 645h373v375q1 40 23 64t58 24t62 -26q25 -26 24 -62v-375h373q47 -1 74 -23t27 -59q0 -90 -101 -90h-373v-387q0 -34 -24 -60t-60 -26t-60 24t-23 62v387h-373q-92 0 -92 86t92 86z" />
    <glyph glyph-name="comma" unicode="," horiz-adv-x="425" 
d="M4 -214q0 21 6 36l137 334q29 66 84 65q31 0 59 -24t13 -66l-156 -360q-20 -51 -58 -51q-37 0 -61 22q-24 23 -24 44z" />
    <glyph glyph-name="hyphen" unicode="-" horiz-adv-x="860" 
d="M219 645h422q88 0 88 -78t-88 -78h-422q-90 0 -90 76q1 33 25 57t65 23z" />
    <glyph glyph-name="period" unicode="." horiz-adv-x="432" 
d="M115 102q0 43 29 73q30 30 73 30t73 -30t30 -73q0 -42 -30 -72t-73 -30t-73 30t-29 72z" />
    <glyph glyph-name="slash" unicode="/" horiz-adv-x="829" 
d="M768 1497q0 -27 -12 -53l-572 -1444q-10 -31 -65 -31q-23 -1 -39 19t-16 45t6 39l557 1429q25 61 80 62q27 1 44 -19t17 -47z" />
    <glyph glyph-name="zero" unicode="0" horiz-adv-x="1212" 
d="M610 133q88 0 156 66q113 110 159 367q17 100 17 200q0 226 -72 416q-37 100 -103 164q-67 63 -158 63t-162 -67t-107 -171q-66 -194 -67 -404t76 -411q37 -98 105 -160t156 -63zM606 1571h8q132 0 234 -76q172 -129 237 -456q27 -132 27 -265t-28 -265t-84 -256
t-157 -201t-235 -77t-238 74q-103 74 -159 196q-109 242 -109 518t111 529q55 125 157 202t236 77z" />
    <glyph glyph-name="one" unicode="1" horiz-adv-x="645" 
d="M336 88v1253l-201 -57q-21 -4 -39 -4t-39 18q-20 18 -20 50q0 66 76 86q305 86 313 86q49 0 66 -41q10 -20 10 -105v-1286q0 -40 -23 -64t-61 -24t-60 24t-22 64z" />
    <glyph glyph-name="two" unicode="2" horiz-adv-x="1062" 
d="M86 1143q0 188 133 305t304 117t300 -109t129 -291t-145 -374l-483 -635h575q76 0 76 -78t-78 -78h-678q-113 0 -113 74q0 37 31 76l557 757q90 123 90 245t-80 188t-187 67q-107 0 -185 -73t-78 -201q0 -35 -22 -67t-60 -32t-62 34t-24 75z" />
    <glyph glyph-name="three" unicode="3" horiz-adv-x="1067" 
d="M113 1219q-1 135 113 243t287 109q173 0 285 -117q112 -118 112 -300t-171 -327q115 -72 173 -178t59 -223q0 -182 -127 -316t-336 -135q-119 1 -214 53q-94 52 -148 129t-54 132t20 77t50 21q53 0 76 -53q84 -195 268 -195q123 0 210 77t87 200q-1 123 -63 209t-177 104
q-25 4 -119 5t-94 75t94 74t115 4q86 16 134 98q48 81 48 187t-65 176q-66 70 -168 70t-166 -60t-63 -154q0 -94 -78 -94q-88 0 -88 109z" />
    <glyph glyph-name="four" unicode="4" horiz-adv-x="1134" 
d="M731 543v805l-500 -805h500zM731 96v291h-584q-51 0 -79 28q-28 27 -29 69q0 42 27 77l534 862q59 96 158 97q57 0 94 -40t37 -108v-829h98q76 0 76 -77t-68 -77h-106v-293q0 -96 -79 -96t-79 96z" />
    <glyph glyph-name="five" unicode="5" horiz-adv-x="1073" 
d="M420 1516h438q35 0 55 -26t21 -63q0 -78 -76 -77h-422l-67 -396q68 16 155 17q219 1 341 -141t122 -344t-133 -356q-133 -155 -373 -155q-170 0 -297 85t-127 173q-1 35 19 55t53 19q33 0 69 -49t124 -89q86 -40 170 -40q143 0 237 104q94 103 94 241t-89 242t-249 103
q-57 0 -115 -17t-87 -18q-84 0 -84 76q0 18 104 574q15 82 117 82z" />
    <glyph glyph-name="six" unicode="6" horiz-adv-x="1091" 
d="M558 827q-150 0 -227 -99t-77 -240t85 -251t226 -110q141 11 225 117t82 244q0 138 -82 239q-82 100 -232 100zM607 979q179 0 300 -137t121 -348t-131 -365t-344 -154t-336 161q-123 162 -123 408t146 494q145 248 372 453q35 31 71 31q37 0 61 -22t24 -54t-23 -55
q-127 -119 -243 -267t-166 -254q92 109 271 109z" />
    <glyph glyph-name="seven" unicode="7" horiz-adv-x="985" 
d="M137 1518h725q39 0 67 -27q46 -45 15 -123l-543 -1284q-37 -84 -98 -84q-72 0 -72 80q0 29 11 49l520 1223h-625q-94 0 -94 83t94 83z" />
    <glyph glyph-name="eight" unicode="8" horiz-adv-x="1107" 
d="M556 911q103 0 162 78q58 78 58 186t-65 171q-66 63 -158 63t-163 -63t-71 -172t67 -186t170 -77zM840 447q0 131 -81 221t-203 90t-204 -91t-82 -220t80 -219t207 -91q127 0 205 90t78 220zM558 1561q167 1 279 -105t111 -272q0 -199 -198 -336q122 -57 192 -168
t70 -242q0 -190 -131 -326t-329 -136t-326 132t-128 336q0 125 72 233t184 159q-199 123 -198 348q0 160 118 268t284 109z" />
    <glyph glyph-name="nine" unicode="9" horiz-adv-x="1112" 
d="M864 1030q0 158 -84 270q-84 111 -239 111q-156 0 -238 -112t-82 -263q0 -152 93 -248q94 -96 230 -96t228 90t92 248zM414 -37q-74 0 -74 74q0 37 39 72q139 121 258 273t154 247q-100 -90 -263 -90q-215 -1 -342 155t-127 365t127 359q126 150 350 151q224 0 354 -159
t130 -402q0 -154 -43 -310t-171 -352t-331 -360q-27 -23 -61 -23z" />
    <glyph glyph-name="colon" unicode=":" horiz-adv-x="462" 
d="M129 819q0 43 30 73q31 30 73 30t72 -30t30 -73t-30 -73t-73 -30t-73 30t-29 73zM129 102q0 43 30 73q31 30 73 30t72 -30t30 -73q0 -42 -30 -72t-73 -30t-73 30t-29 72z" />
    <glyph glyph-name="semicolon" unicode=";" horiz-adv-x="512" 
d="M61 -215q0 20 7 37l137 334q29 66 84 65q31 0 58 -24t13 -66l-155 -360q-21 -51 -59 -51t-62 22q-24 23 -23 43zM164 819q0 43 30 73t72 30t73 -30q30 -30 30 -73t-30 -73t-73 -30q-42 0 -72 30t-30 73z" />
    <glyph glyph-name="less" unicode="&#x3c;" horiz-adv-x="1302" 
d="M1194 70q0 -32 -18 -50t-50 -18t-82 23l-909 452q-72 35 -72 93t72 94l932 434q41 16 69 16t46 -18t18 -47q1 -51 -67 -84l-844 -406l827 -401q78 -37 78 -88z" />
    <glyph glyph-name="equal" unicode="=" horiz-adv-x="1382" 
d="M1171 303h-962q-74 0 -74 75t74 75h962q76 0 76 -75t-76 -75zM209 877h962q76 0 76 -78q0 -72 -76 -72h-962q-74 0 -74 75t74 75z" />
    <glyph glyph-name="greater" unicode="&#x3e;" horiz-adv-x="1300" 
d="M176 2q-68 0 -70 68q0 51 78 88l828 401l-844 406q-68 33 -68 84q0 29 18 47t47 18q28 0 68 -16l932 -434q72 -36 72 -94t-72 -93l-909 -452q-49 -23 -80 -23z" />
    <glyph glyph-name="question" unicode="?" horiz-adv-x="866" 
d="M637 1154q-1 102 -63 158t-144 56t-140 -53t-67 -133q-3 -41 -25 -65q-22 -23 -52 -23t-52 24t-20 70q0 154 110 244t256 90t250 -98t104 -280q0 -183 -143 -378q-144 -194 -291 -340q-32 -27 -62 -27q-30 1 -50 21q-53 54 24 131q111 113 178 189t127 194q60 117 60 220
zM223 102q0 43 30 73t73 30q42 0 72 -30t30 -73q0 -42 -30 -72t-72 -30t-73 30q-30 30 -30 72z" />
    <glyph glyph-name="at" unicode="@" horiz-adv-x="1652" 
d="M838 1049q-98 0 -162 -86q-64 -85 -64 -195t56 -186t168 -76q113 0 176 104v357q-76 82 -174 82zM1092 1186q70 0 69 -99v-423q0 -164 86 -164q78 0 125 100t47 295q1 249 -155 399t-398 150q-294 0 -460 -196t-166 -493t173 -471t429 -175q340 0 497 176q39 41 70 41
q62 0 64 -54q0 -43 -27 -71q-106 -119 -274 -173t-341 -55q-311 0 -523 210q-212 209 -212 567t207 594t565 235q308 0 498 -179t190 -495q0 -233 -85 -388t-218 -155q-111 0 -204 117q-104 -115 -238 -114q-166 1 -255 117t-89 284t95 295t263 127q109 0 199 -90
q10 88 68 88z" />
    <glyph glyph-name="A" unicode="A" horiz-adv-x="1263" 
d="M103 0q-65 0 -64 72q0 16 8 41l463 1310q35 93 119 93t119 -93l479 -1310q8 -18 8 -43q0 -70 -70 -70q-55 0 -73 49l-107 262h-704l-84 -233q-29 -78 -94 -78zM631 1307l-307 -840h606z" />
    <glyph glyph-name="B" unicode="B" horiz-adv-x="1292" 
d="M330 881h266q133 0 235 61q103 61 103 176q0 116 -87 182t-202 66h-315v-485zM330 741v-591h387q139 0 232 72t93 211q0 138 -117 223q-118 85 -280 85h-315zM178 100v1317q0 98 84 99h395q144 0 282 -81q69 -40 112 -114q43 -73 43 -175t-66 -193t-166 -122
q141 -23 246 -139q104 -117 104 -266q0 -184 -128 -305t-306 -121h-481q-67 0 -93 17t-26 83z" />
    <glyph glyph-name="C" unicode="C" horiz-adv-x="1335" 
d="M1184 299q74 0 73 -76q0 -47 -30 -76q-195 -170 -439 -170q-168 0 -304 67q-136 68 -221 180q-173 229 -173 542t178 551q86 115 224 185t309 69q252 0 432 -168q39 -33 39 -72t-22 -61t-56 -23q-34 0 -59 25q-133 133 -323 133t-315 -93q-241 -178 -241 -534
q0 -258 144 -450t397 -193q195 0 336 141q23 23 51 23z" />
    <glyph glyph-name="D" unicode="D" horiz-adv-x="1404" 
d="M680 1366h-350v-1216h321q231 0 366 179q134 179 134 423q0 351 -212 524q-109 90 -259 90zM178 84v1333q0 98 119 99h405q193 0 335 -115t209 -285t67 -364q0 -300 -181 -526t-470 -226h-398q-50 0 -68 16t-18 68z" />
    <glyph glyph-name="E" unicode="E" horiz-adv-x="1060" 
d="M178 92v1331q0 92 84 93h623q76 0 76 -75t-76 -75h-557v-504h458q76 0 76 -78q0 -72 -76 -71h-458v-563h573q88 0 88 -75t-88 -75h-639q-52 0 -68 18t-16 74z" />
    <glyph glyph-name="F" unicode="F" horiz-adv-x="999" 
d="M178 61v1356q0 98 84 99h604q76 0 76 -75t-76 -75h-536v-541h405q76 1 76 -75t-76 -76h-405v-613q0 -61 -76 -61t-76 61z" />
    <glyph glyph-name="G" unicode="G" horiz-adv-x="1441" 
d="M791 717q-90 0 -91 74q0 76 97 75h444q80 0 106 -48t25 -134q0 -299 -169 -503t-443 -204q-162 0 -293 71t-211 188q-164 240 -164 561q0 322 173 546q85 111 219 175t278 63q144 0 269 -48q126 -48 214 -140q35 -35 35 -68t-22 -59t-58 -27q-36 0 -72 33
q-160 145 -348 145q-252 0 -386 -174t-134 -459q0 -162 54 -306t173 -244t281 -99q209 0 330 158t121 393q-1 29 -9 31h-419z" />
    <glyph glyph-name="H" unicode="H" horiz-adv-x="1503" 
d="M178 74v1370q0 76 75 76t75 -76v-598h846v598q0 76 73 76q78 0 78 -76v-1370q0 -74 -76 -74t-75 74v620h-846v-620q0 -74 -75 -74t-75 74z" />
    <glyph glyph-name="I" unicode="I" horiz-adv-x="505" 
d="M178 76v1368q0 76 75 76t75 -76v-1368q0 -76 -75 -76t-75 76z" />
    <glyph glyph-name="J" unicode="J" horiz-adv-x="845" 
d="M678 1444v-1139q0 -152 -95 -242t-253 -90t-273 103q-25 20 -24 57q0 78 69 78q16 0 86 -47t154 -47t133 50t49 138v1139q0 76 77 76t77 -76z" />
    <glyph glyph-name="K" unicode="K" horiz-adv-x="1257" 
d="M178 66v1390q0 64 76 64t76 -64v-747l714 788q16 19 48 19t58 -26t26 -56t-21 -48l-440 -481l475 -772q24 -23 24 -57t-28 -57q-62 -49 -117 14l-465 760l-274 -289v-438q0 -66 -76 -66t-76 66z" />
    <glyph glyph-name="L" unicode="L" horiz-adv-x="1077" 
d="M178 117v1327q0 76 75 76t75 -76v-1294h657q76 0 76 -75t-76 -75h-706q-101 0 -101 117z" />
    <glyph glyph-name="M" unicode="M" horiz-adv-x="1804" 
d="M899 0q-57 0 -84 88l-385 1241l-188 -1243q-12 -84 -83 -84t-71 70q0 16 2 24l203 1274q25 154 131 154q104 -1 143 -138l336 -1116l344 1116q41 133 148 134q106 0 127 -150l190 -1278l2 -16q0 -33 -22 -53t-54 -21q-70 0 -82 82l-174 1243l-399 -1239q-27 -88 -84 -88z
" />
    <glyph glyph-name="N" unicode="N" horiz-adv-x="1478" 
d="M178 78v1352q0 90 74 90q57 0 106 -74l799 -1176v1170q0 78 75 78t75 -78v-1350q0 -90 -74 -90q-59 0 -103 61l-802 1172v-1155q0 -78 -75 -78t-75 78z" />
    <glyph glyph-name="O" unicode="O" horiz-adv-x="1497" 
d="M743 1413q-157 0 -273 -93q-220 -177 -220 -543t224 -554q116 -96 275 -96t275 94q220 178 221 543q0 264 -132 456t-370 193zM743 1567q211 0 365 -118t226 -295t71 -383q0 -206 -72 -382q-71 -176 -225 -293q-154 -116 -363 -116t-361 118t-221 295q-71 179 -71 357
t42 317q94 310 325 432q126 68 284 68z" />
    <glyph glyph-name="P" unicode="P" horiz-adv-x="1257" 
d="M668 1368h-340v-623h372q145 0 244 85q98 86 98 228t-103 226t-271 84zM178 76v1360q0 82 84 82h434q214 0 358 -130t144 -329t-143 -331t-346 -132h-381v-520q0 -76 -75 -76t-75 76z" />
    <glyph glyph-name="Q" unicode="Q" horiz-adv-x="1497" 
d="M745 1413q-157 0 -273 -93q-220 -177 -220 -543t224 -554q116 -96 274 -96q199 0 340 141l-115 107q-29 29 -29 63t25 59t57 25t53 -22l99 -99q68 145 67 363q0 264 -132 456t-370 193zM743 1567q211 0 365 -118t226 -295t71 -384q0 -276 -129 -487q18 -18 139 -154
q23 -27 23 -55t-18 -50t-50 -22q-31 0 -49 18l-141 144q-193 -184 -437 -184q-207 0 -359 118t-221 295q-71 179 -71 357t42 317q94 310 325 432q126 68 284 68z" />
    <glyph glyph-name="R" unicode="R" horiz-adv-x="1329" 
d="M780 1368h-454v-553h454q141 0 218 79q77 80 77 192t-79 197t-216 85zM176 92v1344q0 82 117 82h471q217 0 342 -127t125 -299q0 -133 -81 -243t-235 -151l287 -561q18 -37 19 -71q0 -68 -66 -68q-49 0 -70 41l-329 627h-430v-574q0 -92 -75 -92t-75 92z" />
    <glyph glyph-name="S" unicode="S" horiz-adv-x="1083" 
d="M528 1391q-104 0 -182 -75t-78 -181q0 -60 32 -94t49 -50t94 -62t175 -95q70 -39 144 -79t109 -77t69 -77q60 -71 59 -181q0 -213 -140 -329t-348 -116t-366 103q-55 37 -55 90q0 70 70 70q35 0 71 -25q127 -78 273 -78t237 68q92 68 93 207q0 88 -91 154t-206 125
q-115 60 -166 90q-184 108 -237 208q-34 63 -34 139q0 195 131 310q131 114 317 114t361 -94q57 -33 58 -94q-1 -32 -21 -56t-46 -24t-83 37q-115 72 -289 72z" />
    <glyph glyph-name="T" unicode="T" horiz-adv-x="997" 
d="M424 86v1282h-301q-82 0 -82 75t82 75h756q78 0 77 -76q0 -74 -77 -74h-304v-1282q0 -86 -73 -86q-78 0 -78 86z" />
    <glyph glyph-name="U" unicode="U" horiz-adv-x="1488" 
d="M164 584v846q0 88 83 88t83 -88v-830q0 -457 426 -457q190 1 296 103t107 354v830q0 88 84 88t84 -88v-846q0 -329 -170 -468t-424 -139q-253 0 -411 145t-158 462z" />
    <glyph glyph-name="V" unicode="V" horiz-adv-x="1228" 
d="M1194 1446q0 -22 -6 -35l-457 -1284q-47 -127 -117 -127q-63 0 -104 109l-469 1302q-6 18 -6 37q0 74 78 74q60 -1 80 -62l421 -1206l418 1206q23 60 64 60q42 0 70 -26t28 -48z" />
    <glyph glyph-name="W" unicode="W" horiz-adv-x="1798" 
d="M904 1520q84 0 108 -78l338 -1235l204 1233q12 84 84 84q33 0 62 -28t16 -71l-237 -1321q-8 -48 -45 -76t-84 -28q-98 0 -125 94l-324 1186l-321 -1153q-18 -67 -56 -99t-81 -32q-44 0 -81 33t-47 88l-233 1308q-2 6 -2 30t22 44q23 20 56 21q68 0 80 -76l211 -1239
l348 1237q23 78 107 78z" />
    <glyph glyph-name="X" unicode="X" horiz-adv-x="1212" 
d="M996 1518q34 0 57 -22t23 -50t-17 -49l-369 -545l479 -721q29 -45 29 -76q0 -57 -59 -57q-45 0 -78 45l-461 670l-428 -668q-31 -47 -78 -47q-59 0 -59 59q-1 33 24 70l455 707l-401 565q-41 62 2 101q20 20 55 20t63 -37l375 -514l330 512q24 37 58 37z" />
    <glyph glyph-name="Y" unicode="Y" horiz-adv-x="1058" 
d="M451 88v625l-390 682q-14 27 -14 53q0 72 68 72q39 0 63 -43l359 -598l350 594q29 47 74 47q68 0 67 -66q0 -20 -12 -43l-412 -698v-625q0 -88 -76 -88t-77 88z" />
    <glyph glyph-name="Z" unicode="Z" horiz-adv-x="1171" 
d="M164 1368q-78 0 -78 75t78 75h823q102 0 103 -66q0 -37 -41 -100l-797 -1202h784q80 0 80 -72q0 -78 -80 -78h-907q-72 0 -72 86q0 45 23 80l797 1202h-713z" />
    <glyph glyph-name="bracketleft" unicode="[" horiz-adv-x="516" 
d="M137 -27v1479q0 100 84 100h150q65 0 65 -67t-63 -68h-86v-1413h86q63 0 63 -66t-65 -65h-150q-84 0 -84 100z" />
    <glyph glyph-name="backslash" unicode="\" horiz-adv-x="837" 
d="M778 41q0 -19 -19 -37t-48 -18q-59 0 -88 69l-555 1397q-22 51 16 79q22 17 54 17t46 -18t33 -62l557 -1396q4 -12 4 -31z" />
    <glyph glyph-name="bracketright" unicode="]" horiz-adv-x="516" 
d="M80 1468q0 68 63 68h154q82 0 82 -100v-1463q0 -100 -82 -100h-154q-63 0 -63 76q0 55 53 55h96v1399l-86 -2q-63 -1 -63 67z" />
    <glyph glyph-name="asciicircum" unicode="^" horiz-adv-x="1245" 
d="M1171 616q0 -70 -75 -69q-51 0 -97 82l-368 690l-389 -690q-27 -47 -43 -65t-48 -17q-32 0 -56 17q-47 33 -5 114l457 807q27 51 84 51t84 -51l440 -807q16 -33 16 -62z" />
    <glyph glyph-name="underscore" unicode="_" horiz-adv-x="1177" 
d="M1098 -262h-1022q-76 0 -76 68t76 67h1022q80 0 80 -70q0 -65 -80 -65z" />
    <glyph glyph-name="grave" unicode="`" horiz-adv-x="559" 
d="M41 1671q0 45 47 70q20 10 43 10t53 -20l279 -209l24 -25q8 -20 9 -31q0 -47 -52 -75q-14 -9 -36 -9t-64 35l-278 203l-15 16q-10 20 -10 35z" />
    <glyph glyph-name="a" unicode="a" horiz-adv-x="1095" 
d="M803 344q0 94 -93 148t-212 55q-119 -1 -201 -55t-82 -156t77 -156q78 -54 196 -53q118 0 217 61q98 62 98 156zM546 1165q194 0 304 -104t108 -266v-736q0 -31 -20 -53t-55 -22t-55 21q-19 23 -21 57t-2 65q-133 -143 -350 -143q-162 0 -278 89t-116 256t130 263t321 96
t293 -102v194q0 106 -82 171t-225 65q-76 0 -168 -25t-115 -24q-70 0 -70 63q1 49 58 74q149 61 343 61z" />
    <glyph glyph-name="b" unicode="b" horiz-adv-x="1198" 
d="M649 119q82 0 144 40q109 71 148 247q17 76 17 172q0 237 -130 372q-73 76 -179 76q-166 0 -253 -137t-87 -319t87 -316q87 -135 253 -135zM150 61v1457q0 80 75 79q76 0 76 -79v-580q33 96 133 166t205 70q223 0 350 -182t127 -425q0 -337 -214 -505q-112 -87 -243 -87
q-131 -1 -223 53t-135 150v-119q-1 -37 -23 -59t-55 -23q-73 0 -73 84z" />
    <glyph glyph-name="c" unicode="c" horiz-adv-x="1007" 
d="M623 1001q-166 -1 -277 -123q-110 -122 -110 -310t116 -317q116 -128 277 -128q127 0 229 70q10 8 30 8q20 1 39 -19t19 -52t-49 -71q-125 -82 -272 -82q-231 0 -388 170t-157 423t158 415t383 162q145 0 229 -38t84 -81q0 -34 -18 -56t-38 -22t-32 4q-110 47 -223 47z
" />
    <glyph glyph-name="d" unicode="d" horiz-adv-x="1191" 
d="M556 1024q-142 0 -228 -139t-86 -325t82 -317q82 -132 226 -132q142 0 245 126q102 125 102 331t-99 331t-242 125zM893 1520q0 80 78 79q74 0 73 -79v-1481q0 -68 -76 -68t-75 70v137q-131 -205 -346 -205t-339 172t-124 414q0 340 213 520q111 94 262 95q99 0 195 -50
t139 -141v537z" />
    <glyph glyph-name="e" unicode="e" horiz-adv-x="1132" 
d="M244 645h653q0 163 -86 271t-230 108q-145 0 -241 -112t-96 -267zM80 567q0 249 134 429t359 180t351 -142t125 -370q0 -90 -24 -128t-91 -38h-692q0 -137 114 -254t252 -117q158 -1 264 93q54 48 103 48q68 0 67 -69q0 -27 -14 -41q-144 -182 -404 -182t-402 171
q-142 172 -142 420z" />
    <glyph glyph-name="f" unicode="f" horiz-adv-x="595" 
d="M213 74v907h-96q-84 0 -84 74q0 80 84 80h96q0 188 70 286t229 99q90 0 90 -70t-87 -70t-120 -59t-33 -186q66 0 132 2q84 0 84 -79t-89 -79h-127v-905q0 -74 -74 -74t-75 74z" />
    <glyph glyph-name="g" unicode="g" horiz-adv-x="1198" 
d="M899 1112q0 68 76 68t76 -72v-1030q-1 -256 -145 -398t-353 -143q-209 0 -354 92q-41 27 -41 68t20 65t49 23q29 0 82 -31q115 -63 255 -63t237 94q98 94 98 274v105q-37 -94 -126 -140t-191 -47q-232 -1 -366 177t-134 423t133 421t367 176q94 0 189 -58t128 -135v131z
M572 1024q-134 0 -233 -118t-99 -329q0 -212 101 -335t237 -123t231 120q96 121 96 333t-99 332q-100 120 -234 120z" />
    <glyph glyph-name="h" unicode="h" horiz-adv-x="1140" 
d="M147 74v1446q0 80 74 79q76 0 76 -79v-525q100 176 301 176q158 -1 282 -111t124 -278v-708q0 -74 -75 -74t-75 74v643q0 145 -81 226t-195 81t-197 -82q-84 -82 -84 -225v-643q0 -74 -75 -74t-75 74z" />
    <glyph glyph-name="i" unicode="i" horiz-adv-x="450" 
d="M117 1505q0 43 29 73q30 30 73 30t73 -30t30 -73t-30 -73t-73 -29q-43 -1 -73 29t-29 73zM147 76v1011q0 76 78 76t78 -76v-1011q0 -76 -78 -76t-78 76z" />
    <glyph glyph-name="j" unicode="j" horiz-adv-x="448" 
d="M301 -106q1 -195 -65 -290t-238 -96q-90 0 -90 70t92 70t120 55t27 191v1193q0 74 77 74t77 -74v-1193zM121 1505q0 43 30 73q31 30 73 30t72 -30t30 -73t-30 -73t-73 -29q-43 -1 -73 29t-29 73z" />
    <glyph glyph-name="k" unicode="k" horiz-adv-x="1095" 
d="M1051 69q0 -73 -81 -73q-40 0 -67 45l-381 543l-223 -203v-307q0 -74 -77 -74t-77 74v1448q0 76 77 76t77 -76v-953l584 551q23 18 53 18t54 -18q22 -20 22 -51t-43 -74l-328 -307q118 -168 377 -530q33 -55 33 -89z" />
    <glyph glyph-name="l" unicode="l" horiz-adv-x="446" 
d="M147 76v1448q0 78 76 78t76 -78v-1448q0 -76 -76 -76t-76 76z" />
    <glyph glyph-name="m" unicode="m" horiz-adv-x="1783" 
d="M147 78v987q0 90 76 90t76 -84v-80q41 82 124 132q83 51 178 51t180 -60t124 -156q49 96 147 156t214 60q160 0 272 -102t111 -261v-733q0 -74 -77 -74t-77 74v667q0 115 -64 193q-65 78 -183 78t-198 -94t-79 -228v-616q0 -76 -75 -76t-75 76v667q0 115 -65 191
q-66 76 -184 76t-196 -92q-79 -92 -79 -226v-616q0 -76 -75 -76t-75 76z" />
    <glyph glyph-name="n" unicode="n" horiz-adv-x="1140" 
d="M147 74v999q0 80 75 80t75 -80v-78q98 178 307 179q158 0 279 -109t121 -283v-708q0 -74 -75 -74t-75 74v643q0 145 -81 226t-195 81t-197 -82q-84 -82 -84 -225v-643q0 -74 -75 -74t-75 74z" />
    <glyph glyph-name="o" unicode="o" horiz-adv-x="1155" 
d="M578 1026q-166 0 -251 -129t-85 -308t87 -325t250 -145q163 0 249 127t87 303q0 254 -149 399q-79 78 -188 78zM578 1174q156 0 272 -92q224 -177 223 -521q0 -244 -132 -414t-363 -170q-232 1 -364 177t-132 422t132 422t364 176z" />
    <glyph glyph-name="p" unicode="p" horiz-adv-x="1198" 
d="M653 115q82 0 144 40q108 71 149 252t-12 363q-29 100 -101 176q-73 76 -180 76q-166 0 -253 -137t-87 -319t87 -316q87 -135 253 -135zM150 -387v1481q0 80 76 80t75 -80v-156q33 96 133 166t205 70q223 0 350 -182t127 -425q0 -337 -214 -505q-112 -87 -243 -87
q-131 -1 -223 53t-135 150v-567q-1 -37 -23 -60t-55 -22q-73 0 -73 84z" />
    <glyph glyph-name="q" unicode="q" horiz-adv-x="1193" 
d="M554 1026q-142 0 -228 -139t-86 -325t82 -317q82 -132 226 -132q142 0 245 126q102 125 102 331t-99 331t-242 125zM893 1094q0 80 76 80t75 -80v-1497q0 -68 -76 -68t-75 70v579q-131 -205 -346 -205t-339 172t-124 414q0 340 213 520q111 94 262 95q99 0 195 -50
t139 -141v111z" />
    <glyph glyph-name="r" unicode="r" horiz-adv-x="804" 
d="M728 999l-142 15q-102 0 -196 -91t-93 -206v-643q0 -74 -75 -74t-75 74v999q0 80 75 80t75 -80v-98q55 98 151 148q96 51 190 51q93 0 130 -28t37 -64t-23 -60q-24 -24 -54 -23z" />
    <glyph glyph-name="s" unicode="s" horiz-adv-x="972" 
d="M858 1024q0 -70 -70 -72q-23 0 -45 13q-91 53 -219 53q-272 0 -272 -164q0 -68 117 -124q72 -34 124 -54t96 -39t79 -34t88 -47q152 -92 149 -234q0 -174 -125 -260t-306 -85q-181 0 -372 121q-27 18 -26 62q0 84 67 84q27 0 60 -23q139 -92 282 -92q98 0 175 44t77 134
q0 113 -235 197q-311 116 -377 218q-35 52 -35 114q0 164 118 248t297 85q179 0 314 -73q39 -20 39 -72z" />
    <glyph glyph-name="t" unicode="t" horiz-adv-x="624" 
d="M190 1133v167q0 74 75 74t75 -74v-167h180q80 0 80 -70t-76 -70h-184v-626q0 -137 28 -191t120 -55q92 0 92 -68q0 -72 -91 -71q-172 0 -235 95t-64 290v628h-65q-74 0 -74 69t64 69h75z" />
    <glyph glyph-name="u" unicode="u" horiz-adv-x="1159" 
d="M868 567v512q0 80 72 80t72 -80v-1040q0 -68 -76 -68t-76 70v137q-129 -213 -332 -213q-168 0 -280 114t-113 351v641q0 76 75 76t75 -76l2 -575q0 -231 74 -302t193 -71q120 0 217 121t97 323z" />
    <glyph glyph-name="v" unicode="v" horiz-adv-x="937" 
d="M821 1139q72 0 72 -72q0 -18 -6 -33l-334 -973q-19 -61 -85 -61t-87 61l-326 971q-6 18 -6 43t22 44t54 20q59 0 88 -90l256 -783l260 785q31 88 92 88z" />
    <glyph glyph-name="w" unicode="w" horiz-adv-x="1656" 
d="M834 1135q32 1 64 -19t40 -53l262 -799l250 811q20 63 86 64q68 0 68 -78q0 -20 -11 -51q0 -23 -307 -932q-27 -76 -90 -76t-90 82l-275 805l-264 -811q-25 -78 -99 -78t-101 84q-319 948 -320 971q0 82 76 82q61 -1 86 -64l256 -817l276 807q25 72 93 72z" />
    <glyph glyph-name="x" unicode="x" horiz-adv-x="1013" 
d="M98 1063q0 29 24 51t64 21q40 0 70 -45l250 -359l254 361q31 45 71 45q39 -1 63 -21t24 -51t-25 -61l-301 -379l340 -461q39 -51 39 -96q0 -68 -66 -68q-57 0 -102 63l-307 426l-308 -428q-39 -57 -88 -57q-59 0 -59 64q0 41 35 88l336 456l-291 389q-23 33 -23 62z" />
    <glyph glyph-name="y" unicode="y" horiz-adv-x="970" 
d="M53 1059q0 76 72 76q66 0 88 -72l270 -836l281 846q20 63 90 63t70 -73q0 -31 -6 -47l-506 -1413q-23 -68 -93 -68t-69 74q0 22 8 45l139 360l-334 996q-10 31 -10 49z" />
    <glyph glyph-name="z" unicode="z" horiz-adv-x="960" 
d="M158 1135h624q92 0 92 -62q0 -43 -43 -104l-577 -824h577q76 -1 76 -73t-76 -72h-657q-119 0 -119 72q0 39 37 90l574 823h-508q-76 0 -76 75t76 75z" />
    <glyph glyph-name="braceleft" unicode="{" horiz-adv-x="630" 
d="M114 656q-17 3 -36 9t-31 17t-12 34q0 22 10 32l15 15t19 11t34 12t24 9q111 45 111 319q0 80 -8 172q0 145 71 198q72 52 205 52q25 0 45 -20t21 -43q0 -53 -88 -54q-115 0 -115 -155l8 -164q0 -293 -172 -387q170 -61 170 -371l-4 -170q0 -78 28 -123q29 -45 101 -47
t72 -53q0 -59 -66 -60q-166 1 -224 63t-59 167l9 213q0 270 -105 319q-6 2 -23 5z" />
    <glyph glyph-name="bar" unicode="|" horiz-adv-x="423" 
d="M137 39v1546q0 88 75 88t75 -88v-1546q0 -76 -75 -76t-75 76z" />
    <glyph glyph-name="braceright" unicode="}" horiz-adv-x="630" 
d="M49 1473q1 23 21 43t45 20q133 0 205 -52t71 -198q-8 -92 -8 -172q0 -274 111 -319q15 -8 31 -12q16 -5 28 -10t17 -10q6 -5 16 -13t10 -27q0 -18 -8 -34t-30 -22q-22 -7 -40 -11t-24 -5q-104 -49 -105 -319l8 -213q0 -105 -58 -167t-224 -63q-66 0 -66 60q0 51 73 53
q72 2 100 47t28 123l-4 170q0 309 170 371q-172 94 -172 387l8 164q0 156 -115 155q-88 0 -88 54z" />
    <glyph glyph-name="asciitilde" unicode="~" horiz-adv-x="1273" 
d="M203 381q-68 0 -68 78t94 162q93 84 185 84t236 -78t194 -78t82 39q33 39 64 77q32 38 75 37q72 0 72 -90q1 -68 -103 -150t-192 -81q-88 0 -222 77t-198 77t-122 -77t-97 -77z" />
    <glyph glyph-name="uni00A0" unicode="&#xa0;" horiz-adv-x="491" 
 />
    <glyph glyph-name="exclamdown" unicode="&#xa1;" horiz-adv-x="417" 
d="M111 1040q0 43 29 73q30 30 73 30t73 -30t30 -73q0 -42 -30 -72t-73 -30t-73 30t-29 72zM285 772v-1114q0 -88 -75 -88t-75 88v1114q0 76 75 76t75 -76z" />
    <glyph glyph-name="cent" unicode="&#xa2;" horiz-adv-x="1024" 
d="M229 566q0 -146 72 -258t184 -158v829q-117 -43 -187 -155t-69 -258zM485 1360q0 88 75 88t75 -88v-213q131 -4 212 -40t81 -79q0 -34 -18 -56t-38 -22t-32 4q-94 41 -205 47v-878q121 4 217 70q10 8 30 8q20 1 39 -19t19 -52t-49 -71q-115 -76 -256 -82v-163
q0 -76 -75 -76t-75 76v180q-182 47 -297 205q-114 157 -114 371t115 365q116 150 296 195v230z" />
    <glyph glyph-name="sterling" unicode="&#xa3;" horiz-adv-x="1284" 
d="M143 713q-76 0 -75 71q0 78 75 78h185q-111 158 -111 326t129 261t315 93t336 -103t162 -278q1 -35 -21 -59t-53 -25q-53 0 -79 64q-16 117 -116 185t-219 67q-118 1 -196 -59t-78 -185t97 -287h274q74 0 74 -75t-74 -74h-236q33 -92 33 -178q0 -199 -205 -379h762
q76 0 76 -76t-76 -76h-895q-84 0 -84 72q0 44 81 128t129 168q84 146 24 341h-234z" />
    <glyph glyph-name="currency" unicode="&#xa4;" horiz-adv-x="1460" 
d="M737 817q-113 0 -191 -77t-79 -223q0 -146 81 -228q82 -82 194 -82t194 81t82 225t-84 224t-197 80zM1296 180q62 -49 62 -102t-75 -53q-34 0 -71 34l-176 146q-119 -125 -299 -125t-299 137l-190 -158q-37 -35 -71 -35q-73 1 -75 56q1 47 62 100l201 162q-31 76 -31 184
t43 197l-213 172q-62 51 -62 89q-1 64 68 67q33 0 78 -35l213 -178q113 104 271 104t274 -98l206 172q41 35 73 35q71 0 73 -56q0 -51 -62 -100l-198 -160q53 -95 53 -207t-37 -202z" />
    <glyph glyph-name="yen" unicode="&#xa5;" horiz-adv-x="1165" 
d="M231 629h267v84l-70 121h-244q-90 0 -90 73q0 33 25 57t65 23h156l-244 432q-14 27 -14 56t20 49t54 20t57 -43l371 -622l370 622q25 43 70 43q66 0 66 -63q0 -27 -19 -62l-256 -432h166q88 0 88 -77t-88 -76h-258l-72 -121v-84h267q90 0 90 -77t-90 -77h-267v-403
q0 -86 -77 -86t-76 86v403h-267q-88 0 -88 74q-1 33 23 57t65 23z" />
    <glyph glyph-name="brokenbar" unicode="&#xa6;" horiz-adv-x="428" 
d="M139 74v663q1 43 21 69t53 25q76 0 76 -75v-682q0 -74 -75 -74t-75 74zM139 983v616q1 43 21 69t53 26t55 -20t21 -58v-633q0 -76 -75 -76t-75 76z" />
    <glyph glyph-name="section" unicode="&#xa7;" horiz-adv-x="1019" 
d="M281 750q0 -132 224 -207q93 -31 187 -65t160 -98t66 -159q0 -164 -119 -252t-291 -88t-320 80q-38 19 -38 63t21 64q44 40 97 8q92 -53 220 -53q262 0 262 160q0 41 -26 63q-51 42 -100 63q-53 23 -182 72q-340 133 -340 334q0 55 26 84t62 29t63 -28q28 -28 28 -70z
M739 696q0 132 -224 207q-93 31 -187 65t-160 98t-66 159q0 164 119 252t291 88t319 -80q39 -19 39 -63t-22 -64q-43 -40 -96 -8q-92 53 -220 53q-262 0 -262 -160q0 -40 36 -72t95 -56q58 -25 107 -43q49 -19 70 -28q340 -133 340 -333q0 -55 -26 -84t-62 -29t-64 28
t-27 70z" />
    <glyph glyph-name="dieresis" unicode="&#xa8;" horiz-adv-x="839" 
d="M410 1331q0 43 29 73q30 30 73 30t73 -30q29 -30 29 -73t-30 -73t-72 -30q-43 0 -73 30q-29 30 -29 73zM0 1331q0 43 30 73t72 30t73 -30q30 -30 30 -73t-30 -73t-73 -30q-42 0 -72 30t-30 73z" />
    <glyph glyph-name="copyright" unicode="&#xa9;" horiz-adv-x="1736" 
d="M883 1098q-137 0 -221 -98t-84 -244q0 -148 84 -252t206 -105q74 0 132 21t63 20q61 0 61 -59q0 -35 -32 -62q-66 -53 -207 -53q-197 0 -320 142t-123 347q0 204 132 342t315 138q92 0 194 -45q57 -29 57 -62t-16 -53q-18 -20 -34 -20t-25 4q-90 39 -182 39zM874 113
q274 0 446 178q171 178 171 453q0 276 -173 458q-174 182 -448 182t-445 -180t-171 -454t173 -456t447 -181zM96 745q0 337 216 555t557 218t556 -220t215 -556q0 -337 -217 -553t-557 -216t-555 217t-215 555z" />
    <glyph glyph-name="ordfeminine" unicode="&#xaa;" horiz-adv-x="768" 
d="M184 1029q0 -62 47 -95t120 -33t132 37t59 95t-56 91t-129 33t-123 -33t-50 -95zM386 1534q120 0 186 -64t65 -161v-449q0 -18 -12 -32t-33 -15q-43 0 -47 45v43q-85 -88 -199 -88t-185 55q-71 56 -71 156t80 160t196 59q116 0 179 -63v118q0 66 -50 106t-117 40
t-123 -16t-71 -15q-43 0 -43 39q0 31 35 45q90 37 210 37z" />
    <glyph glyph-name="guillemotleft" unicode="&#xab;" horiz-adv-x="858" 
d="M430 185q0 -19 -28 -37t-60 -17q-32 0 -45 25l-199 333q-26 45 -26 72t26 68l199 334q14 25 46 25q33 0 57 -24q24 -22 24 -46t-10 -39l-199 -318q215 -357 215 -376zM752 180q0 -14 -28 -32t-58 -17q-30 0 -48 25l-204 333q-23 41 -23 70t23 70l204 334q16 23 52 22
q82 0 82 -63q-1 -23 -15 -43l-202 -318q16 -23 213 -360q4 -7 4 -21z" />
    <glyph glyph-name="logicalnot" unicode="&#xac;" horiz-adv-x="1394" 
d="M1102 246v243h-879q-88 0 -88 76q0 33 25 57t63 23h948q86 0 86 -96v-303q0 -88 -73 -88q-33 0 -58 23q-24 24 -24 65z" />
    <glyph glyph-name="uni00AD" unicode="&#xad;" horiz-adv-x="540" 
 />
    <glyph glyph-name="registered" unicode="&#xae;" horiz-adv-x="1734" 
d="M878 125q275 0 443 175q168 174 168 454t-172 461q-171 181 -447 181t-450 -179q-174 -181 -174 -453t178 -456q179 -183 454 -183zM924 1112h-234v-272h234q74 0 116 38t43 95t-43 98t-116 41zM639 1229h301q129 0 211 -78t82 -184q0 -182 -227 -244q215 -313 217 -358
q0 -61 -82 -62q-51 0 -82 64l-203 356h-166v-356q0 -63 -66 -63t-67 63v778q-1 59 23 71t59 13zM868 1536q338 0 554 -220t216 -557t-215 -553t-554 -216t-556 220t-217 556t217 553t555 217z" />
    <glyph glyph-name="degree" unicode="&#xb0;" horiz-adv-x="575" 
d="M285 1331q45 0 75 31t29 72q0 42 -28 72q-27 30 -73 30t-74 -30t-28 -72t27 -73q27 -30 72 -30zM285 1640q92 0 149 -59q58 -59 58 -146t-58 -147t-147 -59q-88 0 -146 59q-57 60 -57 146t54 146q55 60 147 60z" />
    <glyph glyph-name="plusminus" unicode="&#xb1;" horiz-adv-x="1308" 
d="M199 156h915q88 0 88 -77t-88 -77h-915q-90 0 -90 74q1 32 25 56t65 24zM188 819h373v326q0 80 78 80q37 0 63 -23t25 -57v-326h373q47 1 75 -23t27 -61q0 -78 -102 -78h-373v-346q0 -35 -25 -57t-61 -21q-80 0 -80 78v346h-373q-84 0 -84 84q0 78 84 78z" />
    <glyph glyph-name="twosuperior" unicode="&#xb2;" horiz-adv-x="679" 
d="M115 1309q0 94 66 152q67 59 152 59t149 -54t65 -147q0 -92 -72 -186l-242 -318h287q39 0 39 -39t-39 -39h-340q-55 0 -55 37q0 20 14 37l279 379q45 60 45 122t-40 95t-93 33t-92 -36t-39 -101q1 -17 -11 -33t-31 -16t-31 17q-11 18 -11 38z" />
    <glyph glyph-name="threesuperior" unicode="&#xb3;" horiz-adv-x="645" 
d="M315 1446q-51 0 -83 -30t-32 -77t-38 -47q-45 0 -45 61t57 115t144 54q86 0 142 -58t56 -149q0 -92 -86 -164q117 -76 117 -201q1 -90 -63 -158t-177 -67q-113 0 -174 92q-27 37 -27 75t35 38q27 0 39 -27q43 -96 133 -96q61 0 106 39q44 39 44 99q0 59 -32 103t-89 54
l-59 2q-47 0 -47 37t47 37l57 2q43 8 68 49q24 41 24 94t-33 88t-84 35z" />
    <glyph glyph-name="acute" unicode="&#xb4;" horiz-adv-x="559" 
d="M128 1382q-22 0 -36 9q-51 29 -51 75q0 10 8 31l25 25l278 209q32 20 54 20t43 -10q47 -25 47 -70q0 -14 -11 -35l-14 -16l-278 -203q-43 -35 -65 -35z" />
    <glyph glyph-name="mu" unicode="&#xb5;" horiz-adv-x="1130" 
d="M135 -408v1469q0 76 77 76t77 -76v-674q-1 -109 71 -177t193 -69t205 95t84 237v588q0 76 77 76t76 -76v-973q1 -88 -73 -88t-78 78q-2 27 -2 72q-117 -166 -322 -166q-66 0 -130 30t-101 80v-502q0 -76 -77 -76t-77 76z" />
    <glyph glyph-name="paragraph" unicode="&#xb6;" horiz-adv-x="1132" 
d="M461 70v745q-182 0 -290 92t-108 240q0 193 126 295t376 102h420q29 -2 48 -21t19 -46t-20 -47t-47 -21h-98v-1339q-1 -30 -21 -50t-49 -20t-48 20t-19 50v1339h-154v-1339q0 -30 -20 -50t-50 -20q-29 0 -47 20t-18 50z" />
    <glyph glyph-name="periodcentered" unicode="&#xb7;" horiz-adv-x="462" 
d="M129 717q0 43 30 73q31 30 73 30t72 -30t30 -73t-30 -73t-73 -30t-73 30t-29 73z" />
    <glyph glyph-name="cedilla" unicode="&#xb8;" horiz-adv-x="1056" 
d="M506 -42q0 -28 24 -56t51 -47t51 -57t23 -89q0 -106 -66 -159q-67 -52 -159 -52q-34 0 -62 22t-28 54q0 58 80 60q80 3 80 65q0 27 -38 59q-114 94 -114 191q0 14 4 51h158q-4 -14 -4 -42z" />
    <glyph glyph-name="ordmasculine" unicode="&#xba;" horiz-adv-x="794" 
d="M397 1425q-100 1 -153 -79q-54 -80 -54 -192t54 -202t155 -90q100 0 155 79q54 79 54 189t-55 202q-56 93 -156 93zM92 1146q0 152 81 262q81 108 225 108t226 -114t83 -266q0 -152 -82 -256q-81 -106 -225 -106t-226 110t-82 262z" />
    <glyph glyph-name="guillemotright" unicode="&#xbb;" horiz-adv-x="860" 
d="M188 993q34 0 54 -30l198 -334q27 -41 27 -68t-27 -72l-198 -333q-12 -23 -56 -23q-82 0 -82 45q1 11 7 19l213 364l-213 359q-18 30 12 52q31 21 65 21zM422 934q0 59 72 59q45 0 63 -30l207 -334q24 -41 24 -71t-24 -69l-207 -333q-12 -23 -59 -23q-76 0 -76 43
q0 13 8 21l215 364l-205 318q-18 31 -18 55z" />
    <glyph glyph-name="onehalf" unicode="&#xbd;" horiz-adv-x="1894" 
d="M1135 856q0 141 100 229q100 89 228 89q127 0 225 -82t98 -218t-111 -282l-362 -475h432q57 -1 57 -59t-59 -58h-508q-84 0 -84 55q0 25 23 58l417 567q68 94 68 184q-1 90 -61 140t-140 51q-80 -1 -138 -55t-58 -150q0 -26 -16 -50t-47 -24q-30 0 -47 26t-17 54z
M115 1350q-54 0 -56 49q0 51 58 65q223 63 235 64q37 0 49 -31q8 -16 9 -78v-964q0 -29 -18 -47t-45 -18q-28 0 -45 18t-17 47v940l-152 -43q-6 -2 -18 -2zM1087 1563q57 0 58 -58q0 -16 -6 -35l-566 -1441q-14 -41 -48 -41q-70 0 -70 59q0 17 4 25l559 1444q18 47 69 47z
" />
    <glyph glyph-name="questiondown" unicode="&#xbf;" horiz-adv-x="849" 
d="M219 -1q1 -103 63 -159t144 -55q82 0 140 53t67 133q4 41 25 65q22 24 52 24t52 -26q22 -24 20 -69q0 -154 -110 -244t-256 -90q-146 -1 -250 97t-104 281t143 378q144 194 291 340q32 27 62 27t50 -20q53 -54 -24 -132q-112 -114 -178 -190t-126 -193t-61 -220z
M633 1051q0 -43 -30 -73t-73 -30q-42 0 -72 30t-30 73t30 73t72 29q42 1 73 -29q30 -30 30 -73z" />
    <glyph glyph-name="Agrave" unicode="&#xc0;" horiz-adv-x="1263" 
d="M103 0q-65 0 -64 72q0 16 8 41l463 1310q35 93 119 93t119 -93l479 -1310q8 -18 8 -43q0 -70 -70 -70q-55 0 -73 49l-107 262h-704l-84 -233q-29 -78 -94 -78zM631 1307l-307 -840h606zM424 2052q0 45 47 70q20 10 43 10t53 -21l279 -208l24 -25q8 -20 9 -31
q0 -47 -52 -75q-13 -8 -35 -8t-65 34l-278 203l-15 16q-10 20 -10 35z" />
    <glyph glyph-name="Aacute" unicode="&#xc1;" horiz-adv-x="1263" 
d="M103 0q-65 0 -64 72q0 16 8 41l463 1310q35 93 119 93t119 -93l479 -1310q8 -18 8 -43q0 -70 -70 -70q-55 0 -73 49l-107 262h-704l-84 -233q-29 -78 -94 -78zM631 1307l-307 -840h606zM470 1763q-22 0 -36 9q-51 29 -51 75q0 10 8 31l25 25l278 208q51 33 98 9
q46 -23 46 -68q0 -14 -11 -35l-14 -16l-278 -203q-43 -35 -65 -35z" />
    <glyph glyph-name="Acircumflex" unicode="&#xc2;" horiz-adv-x="1263" 
d="M103 0q-65 0 -64 72q0 16 8 41l463 1310q35 93 119 93t119 -93l479 -1310q8 -18 8 -43q0 -70 -70 -70q-55 0 -73 49l-107 262h-704l-84 -233q-29 -78 -94 -78zM631 1307l-307 -840h606zM348 1743q-22 0 -37 8q-51 29 -51 76q0 10 8 31q12 12 18 17l7 7l278 209
q31 20 59 20t60 -20l279 -209l24 -24q8 -20 8 -31q0 -47 -51 -76q-14 -8 -36 -8t-64 35l-193 139q-9 10 -25 10t-26 -8l-194 -141q-42 -35 -64 -35z" />
    <glyph glyph-name="Atilde" unicode="&#xc3;" horiz-adv-x="1263" 
d="M103 0q-65 0 -64 72q0 16 8 41l463 1310q35 93 119 93t119 -93l479 -1310q8 -18 8 -43q0 -70 -70 -70q-55 0 -73 49l-107 262h-704l-84 -233q-29 -78 -94 -78zM631 1307l-307 -840h606zM305 1651q-67 0 -67 76t84 138t166 62t143 -30q61 -31 104 -59t77 -28t52 20t21 42
q2 23 18 42t51 19q72 0 72 -87t-70 -135t-140 -48t-168 57q-98 58 -157 58t-107 -64t-79 -63z" />
    <glyph glyph-name="Adieresis" unicode="&#xc4;" horiz-adv-x="1263" 
d="M103 0q-65 0 -64 72q0 16 8 41l463 1310q35 93 119 93t119 -93l479 -1310q8 -18 8 -43q0 -70 -70 -70q-55 0 -73 49l-107 262h-704l-84 -233q-29 -78 -94 -78zM631 1307l-307 -840h606zM731 1712q0 43 30 73t73 30q42 0 72 -30t30 -73t-30 -73q-30 -29 -72 -29t-73 30
q-30 30 -30 72zM322 1712q0 43 29 73q30 30 73 30t73 -30q29 -30 29 -73t-30 -73q-30 -29 -72 -29q-43 0 -73 29q-29 30 -29 73z" />
    <glyph glyph-name="Aring" unicode="&#xc5;" horiz-adv-x="1263" 
d="M526 1640q0 -42 27 -72t72 -30t75 31t29 71q0 40 -28 72q-27 31 -73 31t-74 -30t-28 -73zM631 1307l-307 -840h606zM625 1847q92 0 149 -59t57 -148q0 -121 -104 -178q10 -16 21 -39l479 -1310q8 -18 8 -43q0 -70 -70 -70q-55 0 -73 49l-107 262h-704l-84 -233
q-29 -78 -94 -78t-64 72q0 16 8 41l463 1310q6 18 16 37q-102 55 -102 182q0 84 54 145q55 60 147 60z" />
    <glyph glyph-name="AE" unicode="&#xc6;" horiz-adv-x="1568" 
d="M686 467v805l-344 -805h344zM1393 1516q76 0 75 -76q0 -74 -75 -74h-557v-504h458q76 0 76 -78q0 -72 -76 -71h-458v-563h573q88 0 88 -75t-88 -75h-639q-53 0 -69 17q-15 17 -15 75v219h-397l-117 -233q-30 -78 -94 -78t-64 72q0 16 9 41l565 1310q35 92 119 93h686z
" />
    <glyph glyph-name="Ccedilla" unicode="&#xc7;" horiz-adv-x="1337" 
d="M1186 299q74 0 74 -76q0 -47 -31 -76q-188 -164 -426 -170v-14q0 -60 75 -108q28 -19 52 -57t22 -89q0 -106 -66 -159q-67 -52 -159 -52q-33 0 -61 22t-29 54q0 58 80 60q80 3 80 65q0 27 -38 59q-114 94 -114 191q0 29 2 43q-178 32 -307 152q-246 228 -248 620
q0 315 178 553q86 115 224 185t309 69q252 0 432 -168q39 -33 39 -72t-22 -61t-56 -23q-34 0 -59 25q-133 133 -323 133t-315 -93q-241 -178 -241 -534q0 -258 144 -450t397 -193q195 0 336 141q23 23 51 23z" />
    <glyph glyph-name="Egrave" unicode="&#xc8;" horiz-adv-x="1060" 
d="M352 2052q0 45 47 70q20 10 43 10t54 -21l278 -208q2 -1 7 -7l18 -18q8 -20 8 -31q0 -47 -51 -75q-14 -8 -36 -8t-65 34l-278 203l-15 16q-10 20 -10 35zM178 92v1331q0 92 84 93h623q76 0 76 -75t-76 -75h-557v-504h458q76 0 76 -78q0 -72 -76 -71h-458v-563h573
q88 0 88 -75t-88 -75h-639q-52 0 -68 18t-16 74z" />
    <glyph glyph-name="Eacute" unicode="&#xc9;" horiz-adv-x="1060" 
d="M440 1763q-22 0 -37 9q-51 29 -51 75q0 10 8 31l25 25l279 208q51 33 97 9q46 -23 46 -68q0 -14 -10 -35l-15 -16l-278 -203q-42 -35 -64 -35zM178 1423q0 92 84 93h623q76 0 76 -75t-76 -75h-557v-504h458q76 0 76 -78q0 -72 -76 -71h-458v-563h573q88 0 88 -75t-88 -75
h-639q-53 0 -68 17t-16 75v1331z" />
    <glyph glyph-name="Ecircumflex" unicode="&#xca;" horiz-adv-x="1060" 
d="M296 1743q-21 0 -36 8q-51 29 -51 76q0 10 8 31l15 15q7 7 10 9l278 209q31 20 59 20t60 -20l279 -209l24 -24q8 -20 8 -31q0 -47 -51 -76q-14 -8 -36 -8t-64 35l-193 139q-10 10 -26 10t-25 -8l-195 -141q-43 -35 -64 -35zM178 92v1331q0 92 84 93h623q76 0 76 -75
t-76 -75h-557v-504h458q76 0 76 -78q0 -72 -76 -71h-458v-563h573q88 0 88 -75t-88 -75h-639q-52 0 -68 18t-16 74z" />
    <glyph glyph-name="Edieresis" unicode="&#xcb;" horiz-adv-x="1060" 
d="M662 1712q0 43 29 73q30 30 73 30t73 -30q29 -30 29 -73t-30 -73q-30 -29 -72 -29q-43 0 -73 29q-29 30 -29 73zM252 1712q0 43 30 73t72 30t73 -30q30 -30 30 -73t-30 -73q-30 -29 -73 -29q-42 0 -72 30t-30 72zM178 1423q0 92 84 93h623q76 0 76 -75t-76 -75h-557v-504
h458q76 0 76 -78q0 -72 -76 -71h-458v-563h573q88 0 88 -75t-88 -75h-639q-53 0 -68 17t-16 75v1331z" />
    <glyph glyph-name="Igrave" unicode="&#xcc;" horiz-adv-x="505" 
d="M178 76v1368q0 76 75 76t75 -76v-1368q0 -76 -75 -76t-75 76zM86 2052q0 45 47 70q20 10 43 10t53 -21l279 -208l24 -25q8 -20 9 -31q0 -47 -52 -75q-13 -8 -35 -8t-65 34l-278 203l-15 16q-10 20 -10 35z" />
    <glyph glyph-name="Iacute" unicode="&#xcd;" horiz-adv-x="505" 
d="M112 1763q-22 0 -36 9q-51 29 -51 75q0 10 8 31l15 15q7 7 9 10l279 208q51 33 97 9q46 -23 46 -68q0 -14 -10 -35l-14 -16l-279 -203q-42 -35 -64 -35zM178 1444q0 76 75 76t75 -76v-1368q0 -76 -75 -76t-75 76v1368z" />
    <glyph glyph-name="Icircumflex" unicode="&#xce;" horiz-adv-x="505" 
d="M-24 1743q-22 0 -35 8q-51 29 -52 76q0 10 9 31l24 24l279 209q31 20 59 20t59 -20l279 -209l18 -18l7 -6q8 -20 8 -31q0 -47 -51 -76q-14 -8 -36 -8t-65 35l-192 139q-9 10 -25 10t-26 -8l-195 -141q-43 -35 -65 -35zM178 76v1368q0 76 75 76t75 -76v-1368
q0 -76 -75 -76t-75 76z" />
    <glyph glyph-name="Idieresis" unicode="&#xcf;" horiz-adv-x="505" 
d="M178 76v1368q0 76 75 76t75 -76v-1368q0 -76 -75 -76t-75 76zM354 1712q0 43 30 73t73 30t73 -30t29 -73q0 -43 -30 -73q-31 -29 -73 -29t-72 30t-30 72zM-55 1712q0 43 29 73q30 30 73 30t73 -30t30 -73t-30 -73q-30 -29 -73 -29t-73 29q-29 30 -29 73z" />
    <glyph glyph-name="Ntilde" unicode="&#xd1;" horiz-adv-x="1478" 
d="M178 78v1352q0 90 74 90q57 0 106 -74l799 -1176v1170q0 78 75 78t75 -78v-1350q0 -90 -74 -90q-59 0 -103 61l-802 1172v-1155q0 -78 -75 -78t-75 78zM420 1651q-68 0 -68 76t84 138t166 62t143 -30q61 -31 105 -59t77 -28q34 0 52 20t20 42q3 23 19 42t51 19
q72 0 72 -87t-70 -135t-140 -48q-69 0 -167 57q-98 58 -158 58t-108 -64q-47 -64 -78 -63z" />
    <glyph glyph-name="Ograve" unicode="&#xd2;" horiz-adv-x="1497" 
d="M547 2052q0 45 47 70q20 10 43 10t53 -21l279 -208l24 -25q8 -20 8 -31q0 -47 -51 -75q-14 -8 -36 -8t-64 34l-279 203l-14 16q-10 20 -10 35zM743 1413q-157 0 -273 -93q-220 -177 -220 -543t224 -554q116 -96 275 -96t275 94q220 178 221 543q0 264 -132 456t-370 193z
M743 1567q211 0 365 -118t226 -295t71 -383q0 -206 -72 -382q-71 -176 -225 -293q-154 -116 -363 -116t-361 118t-221 295q-71 179 -71 357t42 317q94 310 325 432q126 68 284 68z" />
    <glyph glyph-name="Oacute" unicode="&#xd3;" horiz-adv-x="1497" 
d="M743 1413q-157 0 -273 -93q-220 -177 -220 -543t224 -554q116 -96 275 -96t275 94q220 178 221 543q0 264 -132 456t-370 193zM743 1567q211 0 365 -118t226 -295t71 -383q0 -206 -72 -382q-71 -176 -225 -293q-154 -116 -363 -116t-361 118t-221 295q-71 179 -71 357
t42 317q94 310 325 432q126 68 284 68zM716 1763q-21 0 -36 9q-51 29 -51 75q0 10 8 31l25 25l278 208q51 33 97 9q46 -23 46 -68q0 -14 -10 -35l-14 -16l-279 -203q-43 -35 -64 -35z" />
    <glyph glyph-name="Ocircumflex" unicode="&#xd4;" horiz-adv-x="1497" 
d="M743 1413q-157 0 -273 -93q-220 -177 -220 -543t224 -554q116 -96 275 -96t275 94q220 178 221 543q0 264 -132 456t-370 193zM743 1567q211 0 365 -118t226 -295t71 -383q0 -206 -72 -382q-71 -176 -225 -293q-154 -116 -363 -116t-361 118t-221 295q-71 179 -71 357
t42 317q94 310 325 432q126 68 284 68zM468 1743q-21 0 -36 8q-51 29 -51 76q0 10 8 31l17 17q6 5 8 7l278 209q31 20 59 20t60 -20l279 -209l24 -24q8 -20 8 -31q0 -47 -51 -76q-14 -8 -36 -8t-64 35l-193 139q-10 10 -26 10t-25 -8l-195 -141q-43 -35 -64 -35z" />
    <glyph glyph-name="Otilde" unicode="&#xd5;" horiz-adv-x="1497" 
d="M743 1413q-157 0 -273 -93q-220 -177 -220 -543t224 -554q116 -96 275 -96t275 94q220 178 221 543q0 264 -132 456t-370 193zM743 1567q211 0 365 -118t226 -295t71 -383q0 -206 -72 -382q-71 -176 -225 -293q-154 -116 -363 -116t-361 118t-221 295q-71 179 -71 357
t42 317q94 310 325 432q126 68 284 68zM428 1651q-68 0 -68 76t84 138t166 62t144 -30q62 -31 104 -59q43 -28 77 -28t52 20t21 42q2 23 18 42t51 19q72 0 72 -87t-70 -135t-140 -48q-69 0 -167 57q-98 58 -158 58t-108 -64q-47 -64 -78 -63z" />
    <glyph glyph-name="Odieresis" unicode="&#xd6;" horiz-adv-x="1497" 
d="M836 1712q0 43 29 73q30 30 73 30t73 -30q29 -30 29 -73t-30 -73q-30 -29 -72 -29q-43 0 -73 29q-29 30 -29 73zM426 1712q0 43 30 73t72 30t73 -30q30 -30 30 -73t-30 -73q-30 -29 -73 -29q-42 0 -72 30t-30 72zM743 1413q-157 0 -273 -93q-220 -177 -220 -543t224 -554
q116 -96 275 -96t275 94q220 178 221 543q0 264 -132 456t-370 193zM743 1567q211 0 365 -118t226 -295t71 -383q0 -206 -72 -382q-71 -176 -225 -293q-154 -116 -363 -116t-361 118t-221 295q-71 179 -71 357t42 317q94 310 325 432q126 68 284 68z" />
    <glyph glyph-name="Oslash" unicode="&#xd8;" horiz-adv-x="1497" 
d="M743 1413q-157 0 -273 -93q-220 -177 -220 -540q0 -164 52 -309t153 -235l450 1148q-76 29 -162 29zM748 127q160 0 276 94q220 178 221 543q0 164 -53 308t-156 233l-454 -1147q74 -31 166 -31zM92 746q0 182 42 321q94 310 325 432q127 68 262 68t240 -39l16 41
q25 68 86 67q29 0 47 -20t18 -49t-12 -60l-20 -49q150 -106 230 -292t79 -393q0 -208 -72 -384q-71 -176 -225 -293t-365 -116q-113 0 -217 38l-26 -67q-10 -33 -72 -33q-25 0 -42 20t-17 47q0 26 6 44l22 57q-147 106 -226 292t-79 368z" />
    <glyph glyph-name="Ugrave" unicode="&#xd9;" horiz-adv-x="1488" 
d="M164 584v846q0 88 83 88t83 -88v-830q0 -457 426 -457q190 1 296 103t107 354v830q0 88 84 88t84 -88v-846q0 -329 -170 -468t-424 -139q-253 0 -411 145t-158 462zM553 2052q0 45 47 70q20 10 43 10t53 -21l279 -208l24 -25q8 -20 9 -31q0 -47 -52 -75q-14 -8 -36 -8
t-64 34l-278 203l-15 16q-10 20 -10 35z" />
    <glyph glyph-name="Uacute" unicode="&#xda;" horiz-adv-x="1488" 
d="M722 1763q-21 0 -36 9q-51 29 -51 75q0 10 8 31l25 25l278 208q52 33 97 10q46 -24 47 -69q0 -14 -11 -35l-14 -16l-279 -203q-43 -35 -64 -35zM164 1430q0 88 83 88t83 -88v-830q0 -457 426 -457q190 1 296 103t107 354v830q0 88 84 88t84 -88v-846q0 -329 -170 -468
t-424 -139q-253 1 -411 145t-158 462v846z" />
    <glyph glyph-name="Ucircumflex" unicode="&#xdb;" horiz-adv-x="1488" 
d="M164 584v846q0 88 83 88t83 -88v-830q0 -457 426 -457q190 1 296 103t107 354v830q0 88 84 88t84 -88v-846q0 -329 -170 -468t-424 -139q-253 0 -411 145t-158 462zM452 1743q-22 0 -36 8q-51 29 -51 76q0 10 8 31l24 24l279 209q30 20 58 20t61 -20l278 -209l25 -24
q8 -20 8 -31q0 -47 -51 -76q-14 -8 -36 -8t-65 35l-192 139q-10 10 -26 10t-25 -8l-195 -141q-42 -35 -64 -35z" />
    <glyph glyph-name="Udieresis" unicode="&#xdc;" horiz-adv-x="1488" 
d="M164 584v846q0 88 83 88t83 -88v-830q0 -457 426 -457q190 1 296 103t107 354v830q0 88 84 88t84 -88v-846q0 -329 -170 -468t-424 -139q-253 0 -411 145t-158 462zM842 1712q0 43 29 73q30 30 73 30t73 -30t30 -73t-30 -73q-30 -29 -73 -29t-73 29q-29 30 -29 73z
M432 1712q0 43 30 73t73 30t73 -30t29 -73q0 -43 -30 -73q-31 -29 -73 -29t-72 30t-30 72z" />
    <glyph glyph-name="germandbls" unicode="&#xdf;" horiz-adv-x="1169" 
d="M305 1065v-999q0 -88 -78 -89q-78 0 -77 86v1082q0 199 110 321t302 121q193 0 301 -121t108 -276q0 -72 -52 -152t-110 -110q131 -60 208 -184t77 -252q0 -201 -136 -355t-356 -153q-31 0 -47 20t-16 50t18 54t49 23q137 0 231 109q93 109 93 240q0 130 -70 218
t-178 125q-6 1 -26 9l-25 10q-51 17 -51 63q0 53 84 78q45 14 94 80t49 133q0 104 -66 175t-158 71t-147 -28q-97 -49 -121 -201q-10 -62 -10 -148z" />
    <glyph glyph-name="agrave" unicode="&#xe0;" horiz-adv-x="1095" 
d="M401 1669q23 0 54 -20l278 -209l25 -25q8 -20 8 -31q0 -47 -51 -75q-14 -9 -36 -9t-65 35l-278 203l-14 16q-10 20 -11 35q0 45 47 70q20 10 43 10zM803 344q0 94 -93 148t-212 55q-119 -1 -201 -55t-82 -156t77 -156q78 -54 196 -53q118 0 217 61q98 62 98 156z
M546 1165q194 0 304 -104t108 -266v-736q0 -31 -20 -53t-55 -22t-55 21q-19 23 -21 57t-2 65q-133 -143 -350 -143q-162 0 -278 89t-116 256t130 263t321 96t293 -102v194q0 106 -82 171t-225 65q-76 0 -168 -25t-115 -24q-70 0 -70 63q1 49 58 74q149 61 343 61z" />
    <glyph glyph-name="aacute" unicode="&#xe1;" horiz-adv-x="1095" 
d="M398 1321q-22 0 -36 8q-51 29 -51 76q0 10 8 31l25 24l279 209q52 33 97 9q46 -24 46 -68q0 -14 -10 -35l-15 -16l-278 -203q-43 -35 -65 -35zM803 344q0 94 -93 148t-212 55q-119 -1 -201 -55t-82 -156t77 -156q78 -54 196 -53q118 0 217 61q98 62 98 156zM546 1165
q194 0 304 -104t108 -266v-736q0 -31 -20 -53t-55 -22t-55 21q-19 23 -21 57t-2 65q-133 -143 -350 -143q-162 0 -278 89t-116 256t130 263t321 96t293 -102v194q0 106 -82 171t-225 65q-76 0 -168 -25t-115 -24q-70 0 -70 63q1 49 58 74q149 61 343 61z" />
    <glyph glyph-name="acircumflex" unicode="&#xe2;" horiz-adv-x="1095" 
d="M234 1362q-22 0 -35 8q-51 29 -52 76q0 10 9 31l24 24l279 209q59 38 119 0l278 -209l25 -24q8 -20 8 -31q0 -47 -51 -76q-14 -8 -36 -8t-65 35l-192 139q-9 10 -25 10t-26 -8l-195 -141q-43 -35 -65 -35zM803 344q0 94 -93 148t-212 55q-119 -1 -201 -55t-82 -156
t77 -156q78 -54 196 -53q118 0 217 61q98 62 98 156zM546 1165q194 0 304 -104t108 -266v-736q0 -31 -20 -53t-55 -22t-55 21q-19 23 -21 57t-2 65q-133 -143 -350 -143q-162 0 -278 89t-116 256t130 263t321 96t293 -102v194q0 106 -82 171t-225 65q-76 0 -168 -25
t-115 -24q-70 0 -70 63q1 49 58 74q149 61 343 61z" />
    <glyph glyph-name="atilde" unicode="&#xe3;" horiz-adv-x="1095" 
d="M213 1331q-68 0 -68 76t84 138q84 63 166 63q81 0 143 -30t105 -58t77 -29q34 0 52 19t21 42q2 23 18 42t51 20q72 0 72 -87t-70 -135t-140 -48t-168 56q-98 58 -158 58t-107 -64t-78 -63zM803 344q0 94 -93 148t-212 55q-119 -1 -201 -55t-82 -156t77 -156
q78 -54 196 -53q118 0 217 61q98 62 98 156zM546 1165q194 0 304 -104t108 -266v-736q0 -31 -20 -53t-55 -22t-55 21q-19 23 -21 57t-2 65q-133 -143 -350 -143q-162 0 -278 89t-116 256t130 263t321 96t293 -102v194q0 106 -82 171t-225 65q-76 0 -168 -25t-115 -24
q-70 0 -70 63q1 49 58 74q149 61 343 61z" />
    <glyph glyph-name="adieresis" unicode="&#xe4;" horiz-adv-x="1095" 
d="M633 1434q0 42 30 72q31 30 73 30t72 -30t30 -72t-30 -73q-30 -30 -73 -30t-73 30t-29 73zM223 1434q0 42 30 72t73 30q42 0 72 -30t30 -72t-30 -73q-30 -30 -72 -30t-73 30q-30 30 -30 73zM803 344q0 94 -93 148t-212 55q-119 -1 -201 -55t-82 -156t77 -156
q78 -54 196 -53q118 0 217 61q98 62 98 156zM546 1165q194 0 304 -104t108 -266v-736q0 -31 -20 -53t-55 -22t-55 21q-19 23 -21 57t-2 65q-133 -143 -350 -143q-162 0 -278 89t-116 256t130 263t321 96t293 -102v194q0 106 -82 171t-225 65q-76 0 -168 -25t-115 -24
q-70 0 -70 63q1 49 58 74q149 61 343 61z" />
    <glyph glyph-name="aring" unicode="&#xe5;" horiz-adv-x="1095" 
d="M803 344q0 94 -93 148t-212 55q-119 -1 -201 -55t-82 -156t77 -156q78 -54 196 -53q118 0 217 61q98 62 98 156zM546 1165q194 0 304 -104t108 -266v-736q0 -31 -20 -53t-55 -22t-55 21q-19 23 -21 57t-2 65q-133 -143 -350 -143q-162 0 -278 89t-116 256t130 263t321 96
t293 -102v194q0 106 -82 171t-225 65q-76 0 -168 -25t-115 -24q-70 0 -70 63q1 49 58 74q149 61 343 61zM438 1454q0 -42 27 -72t72 -30t75 30t29 72q0 41 -28 72q-27 30 -73 30t-74 -30t-28 -72zM537 1661q92 0 149 -59q57 -58 57 -146t-58 -147t-146 -59q-87 0 -145 58
q-58 60 -58 146t54 147q55 60 147 60z" />
    <glyph glyph-name="ae" unicode="&#xe6;" horiz-adv-x="1857" 
d="M969 645h653q0 163 -86 271t-230 108t-240 -112t-97 -267zM803 344q0 94 -93 148t-212 55q-119 -1 -201 -55t-82 -156t77 -156q78 -54 196 -53q118 0 217 61q98 62 98 156zM1292 1176q232 0 356 -142q126 -142 126 -370q0 -90 -24 -128t-91 -38h-692q1 -137 115 -254
t251 -117q159 -1 265 93q54 48 102 48q68 0 67 -69q0 -27 -14 -41q-145 -182 -421 -182t-423 221l-63 -70q-63 -67 -175 -105t-216 -38q-162 0 -278 89t-116 256t130 263t321 96t293 -102v194q0 106 -82 171t-225 65q-76 0 -168 -25t-115 -24q-70 0 -70 63q0 49 58 74
q150 61 340 61q276 0 377 -198q140 209 372 209z" />
    <glyph glyph-name="ccedilla" unicode="&#xe7;" horiz-adv-x="1007" 
d="M623 1001q-166 -1 -277 -123q-110 -122 -110 -310t116 -317q116 -128 277 -128q127 0 229 70q10 8 30 8q20 1 39 -19t19 -52t-49 -71q-125 -82 -272 -82l-2 -14q0 -59 74 -108q28 -19 52 -57t23 -89q0 -106 -66 -159q-67 -52 -159 -52q-33 0 -62 22t-29 54q1 58 82 60
q80 3 78 65q0 27 -38 59q-114 95 -113 191q0 14 4 51q-172 53 -281 208t-108 361q0 254 158 416t383 162q145 0 229 -38t84 -81q0 -34 -18 -56t-38 -22t-32 4q-110 47 -223 47z" />
    <glyph glyph-name="egrave" unicode="&#xe8;" horiz-adv-x="1132" 
d="M244 645h653q0 163 -86 271t-230 108q-145 0 -241 -112t-96 -267zM80 567q0 249 134 429t359 180t351 -142t125 -370q0 -90 -24 -128t-91 -38h-692q0 -137 114 -254t252 -117q158 -1 264 93q54 48 103 48q68 0 67 -69q0 -27 -14 -41q-144 -182 -404 -182t-402 171
q-142 172 -142 420zM348 1589q0 45 47 70q20 10 43 10t54 -20l278 -209l25 -25q8 -20 8 -31q0 -47 -51 -75q-14 -9 -36 -9t-65 35l-278 203l-15 16q-10 20 -10 35z" />
    <glyph glyph-name="eacute" unicode="&#xe9;" horiz-adv-x="1132" 
d="M436 1300q-22 0 -37 9q-51 29 -51 75q0 10 8 31l25 25l278 209q31 20 53 20t44 -10q47 -25 47 -70q0 -14 -10 -35l-15 -16l-278 -203q-42 -35 -64 -35zM244 645h653q0 163 -86 271t-230 108q-145 0 -241 -112t-96 -267zM80 567q0 249 134 429t359 180t351 -142t125 -370
q0 -90 -24 -128t-91 -38h-692q0 -137 114 -254t252 -117q158 -1 264 93q54 48 103 48q68 0 67 -69q0 -27 -14 -41q-144 -182 -404 -182t-402 171q-142 172 -142 420z" />
    <glyph glyph-name="ecircumflex" unicode="&#xea;" horiz-adv-x="1132" 
d="M244 645h653q0 163 -86 271t-230 108q-145 0 -241 -112t-96 -267zM80 567q0 249 134 429t359 180t351 -142t125 -370q0 -90 -24 -128t-91 -38h-692q0 -137 114 -254t252 -117q158 -1 264 93q54 48 103 48q68 0 67 -69q0 -27 -14 -41q-144 -182 -404 -182t-402 171
q-142 172 -142 420zM298 1362q-21 0 -36 8q-51 29 -51 76q0 10 8 31q12 12 18 17l7 7l278 209q60 39 119 0l279 -209l24 -24q8 -20 8 -31q0 -47 -51 -76q-14 -8 -36 -8t-64 35l-193 139q-10 10 -26 10t-25 -8l-195 -141q-43 -35 -64 -35z" />
    <glyph glyph-name="edieresis" unicode="&#xeb;" horiz-adv-x="1132" 
d="M244 645h653q0 163 -86 271t-230 108q-145 0 -241 -112t-96 -267zM80 567q0 249 134 429t359 180t351 -142t125 -370q0 -90 -24 -128t-91 -38h-692q0 -137 114 -254t252 -117q158 -1 264 93q54 48 103 48q68 0 67 -69q0 -27 -14 -41q-144 -182 -404 -182t-402 171
q-142 172 -142 420zM680 1458q0 43 30 73t72 30t73 -30q30 -30 30 -73t-30 -73q-30 -29 -73 -29q-42 0 -72 30t-30 72zM270 1458q0 43 30 73t73 30t73 -30t29 -73q0 -43 -30 -73q-31 -29 -73 -29t-72 30t-30 72z" />
    <glyph glyph-name="igrave" unicode="&#xec;" horiz-adv-x="450" 
d="M23 1589q0 45 47 70q20 10 42 10t54 -20l278 -209l25 -25q8 -20 8 -31q0 -47 -51 -75q-14 -9 -36 -9t-64 35l-279 203l-14 16q-10 20 -10 35zM147 76v1011q0 76 78 76t78 -76v-1011q0 -76 -78 -76t-78 76z" />
    <glyph glyph-name="iacute" unicode="&#xed;" horiz-adv-x="450" 
d="M147 76v1011q0 76 78 76t78 -76v-1011q0 -76 -78 -76t-78 76zM90 1341q-22 0 -37 9q-51 29 -51 75q0 10 8 31l25 25l278 209q31 20 53 20t44 -10q47 -25 47 -70q0 -14 -11 -35l-14 -16l-278 -203q-42 -35 -64 -35z" />
    <glyph glyph-name="icircumflex" unicode="&#xee;" horiz-adv-x="450" 
d="M-54 1362q-21 0 -36 8q-51 29 -51 76q0 10 8 31l24 24l279 209q59 38 119 0l278 -209l25 -24q8 -20 8 -31q0 -47 -51 -76q-14 -8 -36 -8t-64 35l-193 139q-10 10 -26 10t-25 -8l-195 -141q-43 -35 -64 -35zM147 76v1011q0 76 78 76t78 -76v-1011q0 -76 -78 -76t-78 76z
" />
    <glyph glyph-name="idieresis" unicode="&#xef;" horiz-adv-x="450" 
d="M313 1452q0 43 30 73q30 29 73 29q42 0 72 -30t30 -72q0 -43 -30 -73q-30 -29 -72 -29t-73 30q-30 30 -30 72zM-96 1452q0 43 29 73q30 29 73 29t73 -30t30 -72q0 -43 -30 -73q-30 -29 -73 -29t-73 29q-29 30 -29 73zM147 76v1011q0 76 78 76t78 -76v-1011q0 -76 -78 -76
t-78 76z" />
    <glyph glyph-name="ntilde" unicode="&#xf1;" horiz-adv-x="1140" 
d="M238 1372q-68 0 -68 76t84 138t166 62t143 -29q61 -31 105 -59t76 -28q34 0 53 19q18 19 20 42q3 23 19 42t51 20q71 0 71 -87t-70 -135q-70 -49 -140 -49t-167 58t-157 57q-60 0 -105 -57q-50 -70 -81 -70zM147 74v999q0 80 75 80t75 -80v-78q98 178 307 179
q158 0 279 -109t121 -283v-708q0 -74 -75 -74t-75 74v643q0 145 -81 226t-195 81t-197 -82q-84 -82 -84 -225v-643q0 -74 -75 -74t-75 74z" />
    <glyph glyph-name="ograve" unicode="&#xf2;" horiz-adv-x="1155" 
d="M446 1669q23 0 54 -20l278 -209l25 -25q8 -20 8 -31q0 -47 -51 -75q-14 -9 -36 -9t-65 35l-278 203l-14 16q-10 20 -11 35q0 45 47 70q20 10 43 10zM578 1026q-166 0 -251 -129t-85 -308t87 -325t250 -145q163 0 249 127t87 303q0 254 -149 399q-79 78 -188 78zM578 1174
q156 0 272 -92q224 -177 223 -521q0 -244 -132 -414t-363 -170q-232 1 -364 177t-132 422t132 422t364 176z" />
    <glyph glyph-name="oacute" unicode="&#xf3;" horiz-adv-x="1155" 
d="M423 1341q-21 0 -36 9q-51 29 -51 75q0 10 8 31l25 25l278 209q31 20 53 20t43 -10q47 -25 48 -70q0 -14 -11 -35l-14 -16l-279 -203q-43 -35 -64 -35zM578 1026q-166 0 -251 -129t-85 -308t87 -325t250 -145q163 0 249 127t87 303q0 254 -149 399q-79 78 -188 78z
M578 1174q156 0 272 -92q224 -177 223 -521q0 -244 -132 -414t-363 -170q-232 1 -364 177t-132 422t132 422t364 176z" />
    <glyph glyph-name="ocircumflex" unicode="&#xf4;" horiz-adv-x="1155" 
d="M578 1026q-166 0 -251 -129t-85 -308t87 -325t250 -145q163 0 249 127t87 303q0 254 -149 399q-79 78 -188 78zM578 1174q156 0 272 -92q224 -177 223 -521q0 -244 -132 -414t-363 -170q-232 1 -364 177t-132 422t132 422t364 176zM280 1362q-22 0 -36 8q-51 29 -51 76
q0 10 8 31l24 24l279 209q59 38 119 0l278 -209l25 -24q8 -20 8 -31q0 -47 -51 -76q-14 -8 -36 -8t-65 35l-192 139q-10 10 -26 10t-25 -8l-195 -141q-42 -35 -64 -35z" />
    <glyph glyph-name="otilde" unicode="&#xf5;" horiz-adv-x="1155" 
d="M236 1331q-68 0 -68 76t84 138q84 63 166 63t143 -30t105 -58t76 -29q34 0 53 19q18 19 20 42q3 23 19 42t51 20q71 0 71 -87t-70 -135t-140 -48t-167 56q-97 58 -157 58t-105 -57q-50 -70 -81 -70zM578 1026q-166 0 -251 -129t-85 -308t87 -325t250 -145q163 0 249 127
t87 303q0 254 -149 399q-79 78 -188 78zM578 1174q156 0 272 -92q224 -177 223 -521q0 -244 -132 -414t-363 -170q-232 1 -364 177t-132 422t132 422t364 176z" />
    <glyph glyph-name="odieresis" unicode="&#xf6;" horiz-adv-x="1155" 
d="M666 1432q0 42 30 72t72 30q43 0 73 -30q29 -30 29 -72t-30 -73q-30 -30 -72 -30q-43 0 -73 30q-29 30 -29 73zM256 1432q0 42 30 72t72 30t73 -30q30 -30 30 -72t-30 -73q-30 -30 -73 -30q-42 0 -72 30t-30 73zM578 1026q-166 0 -251 -129t-85 -308t87 -325t250 -145
q163 0 249 127t87 303q0 254 -149 399q-79 78 -188 78zM578 1174q156 0 272 -92q224 -177 223 -521q0 -244 -132 -414t-363 -170q-232 1 -364 177t-132 422t132 422t364 176z" />
    <glyph glyph-name="oslash" unicode="&#xf8;" horiz-adv-x="1155" 
d="M578 1026q-166 0 -251 -129t-85 -327t106 -334l305 778q-36 12 -75 12zM578 119q164 0 250 127t87 303q0 106 -36 215q-37 109 -105 178l-317 -799q51 -24 121 -24zM82 575q0 246 132 422t364 177q70 0 129 -19l69 176q25 61 80 62q27 1 44 -19q33 -38 5 -100l-71 -180
q115 -80 177 -224t62 -309q0 -244 -132 -414t-363 -170q-86 0 -175 31l-69 -178q-10 -31 -66 -31q-23 -1 -39 19t-16 44t6 40l68 176q-98 82 -152 214q-53 132 -53 283z" />
    <glyph glyph-name="ugrave" unicode="&#xf9;" horiz-adv-x="1159" 
d="M868 567v512q0 80 72 80t72 -80v-1040q0 -68 -76 -68t-76 70v137q-129 -213 -332 -213q-168 0 -280 114t-113 351v641q0 76 75 76t75 -76l2 -575q0 -231 74 -302t193 -71q120 0 217 121t97 323zM344 1589q0 45 47 70q20 10 43 10t53 -20l279 -209l25 -25q8 -20 8 -31
q0 -47 -51 -75q-14 -9 -36 -9t-65 35l-278 203l-15 16q-10 20 -10 35z" />
    <glyph glyph-name="uacute" unicode="&#xfa;" horiz-adv-x="1159" 
d="M868 567v512q0 80 72 80t72 -80v-1040q0 -68 -76 -68t-76 70v137q-129 -213 -332 -213q-168 0 -280 114t-113 351v641q0 76 75 76t75 -76l2 -575q0 -231 74 -302t193 -71q120 0 217 121t97 323zM452 1300q-22 0 -36 9q-51 29 -51 75q0 10 8 31l24 25l279 209q31 20 53 20
t43 -10q47 -25 47 -70q0 -14 -10 -35l-14 -16l-279 -203q-42 -35 -64 -35z" />
    <glyph glyph-name="ucircumflex" unicode="&#xfb;" horiz-adv-x="1159" 
d="M272 1362q-22 0 -36 8q-51 29 -52 76q0 10 9 31l24 24l279 209q60 38 118 0l279 -209l25 -24q8 -20 8 -31q0 -47 -52 -76q-14 -8 -36 -8t-64 35l-192 139q-10 10 -26 10t-26 -8l-194 -141q-42 -35 -64 -35zM868 567v512q0 80 72 80t72 -80v-1040q0 -68 -76 -68t-76 70
v137q-129 -213 -332 -213q-168 0 -280 114t-113 351v641q0 76 75 76t75 -76l2 -575q0 -231 74 -302t193 -71q120 0 217 121t97 323z" />
    <glyph glyph-name="udieresis" unicode="&#xfc;" horiz-adv-x="1159" 
d="M868 567v512q0 80 72 80t72 -80v-1040q0 -68 -76 -68t-76 70v137q-129 -213 -332 -213q-168 0 -280 114t-113 351v641q0 76 75 76t75 -76l2 -575q0 -231 74 -302t193 -71q120 0 217 121t97 323zM674 1434q0 42 30 72t72 30q43 0 73 -30t30 -72t-30 -73q-30 -30 -73 -30
t-73 30q-29 30 -29 73zM264 1434q0 42 30 72t73 30t73 -30t29 -72q0 -42 -30 -73q-31 -30 -73 -30t-72 30t-30 73z" />
    <glyph glyph-name="ydieresis" unicode="&#xff;" horiz-adv-x="970" 
d="M594 1419q0 43 30 73t72 30t73 -30q30 -30 30 -73t-30 -73t-73 -29q-42 -1 -72 29t-30 73zM184 1419q0 43 30 73t73 30t73 -30t29 -73q0 -43 -30 -73q-31 -30 -73 -29q-42 -1 -72 29t-30 73zM53 1059q0 76 72 76q66 0 88 -72l270 -836l281 846q20 63 90 63t70 -73
q0 -31 -6 -47l-506 -1413q-23 -68 -93 -68t-69 74q0 23 8 45l139 360l-334 996q-10 31 -10 49z" />
    <glyph glyph-name="dotlessi" unicode="&#x131;" horiz-adv-x="450" 
d="M147 76v1011q0 76 78 76t78 -76v-1011q0 -76 -78 -76t-78 76z" />
    <glyph glyph-name="OE" unicode="&#x152;" horiz-adv-x="1871" 
d="M738 127q148 0 251 66v1148q-111 72 -257 72t-262 -93q-220 -177 -220 -543q0 -367 224 -553q116 -96 264 -97zM726 1567q142 0 269 -51h701q76 0 76 -75t-76 -75h-557v-504h458q76 0 76 -78q0 -72 -76 -71h-458v-563h573q88 0 88 -75t-88 -75h-639q-66 0 -78 29
q-121 -49 -252 -49q-207 0 -359 118t-221 295q-71 179 -71 357t42 317t120 252t204 181t268 67z" />
    <glyph glyph-name="oe" unicode="&#x153;" horiz-adv-x="1972" 
d="M1083 645h654q0 163 -86 271q-87 108 -231 108t-240 -112t-97 -267zM578 1026q-166 0 -251 -129t-85 -308t87 -325t250 -145q163 0 249 127t87 303q0 254 -149 399q-79 78 -188 78zM1415 1176q223 0 348 -142t125 -370q0 -90 -24 -128t-90 -38h-693q0 -137 115 -254
t252 -117q158 -1 264 93q54 48 103 48q68 0 67 -69q0 -27 -14 -41q-145 -182 -420 -183q-305 0 -449 263q-135 -260 -421 -261q-232 1 -364 177t-132 422t132 421q132 176 364 177q141 0 247 -74t170 -199q63 127 170 201t250 74z" />
    <glyph glyph-name="Ydieresis" unicode="&#x178;" horiz-adv-x="1058" 
d="M451 88v625l-390 682q-14 27 -14 53q0 72 68 72q39 0 63 -43l359 -598l350 594q29 47 74 47q68 0 67 -66q0 -20 -12 -43l-412 -698v-625q0 -88 -76 -88t-77 88zM643 1712q0 43 30 73q31 30 73 30t72 -30t30 -73t-30 -73q-30 -29 -73 -29t-73 30t-29 72zM233 1712
q0 43 30 73t73 30t73 -30q29 -30 29 -73t-30 -73q-30 -29 -72 -29q-43 0 -73 30t-30 72z" />
    <glyph glyph-name="florin" unicode="&#x192;" horiz-adv-x="696" 
d="M406 -106q0 -195 -64 -290t-236 -96q-90 0 -90 70t92 70t120 56t28 190l2 1087h-96q-84 0 -84 74q0 80 84 80h96q0 195 64 289t235 96q90 0 90 -70t-92 -70t-120 -55t-27 -190q66 0 131 2q84 0 84 -79t-88 -79h-127v-528l-2 -445v-112z" />
    <glyph glyph-name="circumflex" unicode="&#x2c6;" horiz-adv-x="1042" 
d="M169 1362q-21 0 -36 8q-51 29 -51 76q0 10 8 31q12 12 18 17l7 7l278 209q60 39 119 0l279 -209l24 -24q8 -20 8 -31q0 -47 -51 -76q-14 -8 -36 -8t-64 35l-193 139q-9 10 -25 10t-26 -8l-195 -141q-43 -35 -64 -35z" />
    <glyph glyph-name="ring" unicode="&#x2da;" horiz-adv-x="655" 
d="M201 1331q45 0 75 31t29 72q1 42 -27 72t-74 30t-74 -30t-28 -72t27 -73q27 -30 72 -30zM201 1640q92 0 149 -59q58 -59 58 -146t-58 -147t-147 -59q-88 0 -146 59q-57 60 -57 146t54 146q55 60 147 60z" />
    <glyph glyph-name="tilde" unicode="&#x2dc;" horiz-adv-x="1056" 
d="M193 1270q-68 0 -68 76t84 138t166 62t143 -30q60 -30 104 -58q83 -55 130 -9q18 19 20 42t18 42t52 19q72 0 72 -87t-70 -135t-140 -48t-168 57t-158 57t-107 -62q-47 -64 -78 -64z" />
    <glyph glyph-name="tonos" unicode="&#x384;" horiz-adv-x="733" 
d="M78 1081q-76 0 -76 70q0 18 8 35l137 319q27 57 74 58q72 0 72 -74q0 -9 -4 -21l-139 -315q-31 -72 -72 -72z" />
    <glyph glyph-name="dieresistonos" unicode="&#x385;" horiz-adv-x="976" 
d="M543 1706q74 0 73 -74q0 -8 -4 -20l-139 -316q-31 -72 -72 -72q-80 1 -82 70q0 18 9 35l137 320q27 57 78 57zM614 1331q0 43 30 73t73 30t73 -30t30 -73t-30 -73t-73 -30t-73 30t-30 73zM0 1331q0 43 30 73t72 30t73 -30q30 -30 30 -73t-30 -73t-73 -30q-42 0 -72 30
t-30 73z" />
    <glyph glyph-name="Alphatonos" unicode="&#x386;" horiz-adv-x="1341" 
d="M154 1081q-76 0 -76 70q0 18 8 35l137 319q27 57 74 58q72 0 72 -74q0 -9 -4 -21l-140 -315q-31 -72 -71 -72zM180 0q-64 0 -63 72q0 16 8 41l463 1310q35 93 119 93t118 -93l480 -1310q8 -18 8 -43q0 -70 -70 -70q-56 0 -74 49l-106 262h-705l-84 -233q-30 -78 -94 -78z
M709 1307l-308 -840h607z" />
    <glyph glyph-name="Epsilontonos" unicode="&#x388;" horiz-adv-x="1325" 
d="M90 1081q-76 0 -76 70q0 18 9 35l137 319q27 57 73 58q72 0 72 -74q0 -9 -4 -21l-139 -315q-31 -72 -72 -72zM442 92v1331q0 92 84 93h623q76 0 76 -75t-76 -75h-557v-504h459q76 0 75 -78q0 -72 -75 -71h-459v-563h573q88 0 88 -75t-88 -75h-639q-52 0 -68 18t-16 74z
" />
    <glyph glyph-name="Etatonos" unicode="&#x389;" horiz-adv-x="1781" 
d="M90 1081q-76 0 -76 70q0 18 9 35l137 319q27 57 73 58q72 0 72 -74q0 -9 -4 -21l-139 -315q-31 -72 -72 -72zM463 74v1370q0 76 75 76t74 -76v-598h846v598q0 76 76 76t76 -76v-1370q0 -74 -76 -74t-76 74v620h-846v-620q0 -74 -74 -74t-75 74z" />
    <glyph glyph-name="Iotatonos" unicode="&#x38a;" horiz-adv-x="768" 
d="M90 1081q-76 0 -76 70q0 18 9 35l137 319q27 57 73 58q72 0 72 -74q0 -9 -4 -21l-139 -315q-31 -72 -72 -72zM442 76v1368q0 76 75 76t75 -76v-1368q0 -76 -75 -76t-75 76z" />
    <glyph glyph-name="Omicrontonos" unicode="&#x38c;" horiz-adv-x="1665" 
d="M92 1081q-76 0 -76 70q0 18 9 35l137 319q27 57 74 58q72 0 71 -74q0 -9 -4 -21l-139 -315q-31 -72 -72 -72zM911 1413q-157 0 -273 -93q-220 -177 -220 -543t224 -554q116 -96 274 -96t276 94q221 178 221 543q0 264 -132 456t-370 193zM911 1567q211 0 365 -118
t226 -295t71 -383q0 -206 -72 -382q-71 -176 -225 -293q-154 -116 -363 -116t-361 118t-221 295q-71 179 -71 357t42 317q94 310 325 432q126 68 284 68z" />
    <glyph glyph-name="Upsilontonos" unicode="&#x38e;" horiz-adv-x="1490" 
d="M145 1081q-76 0 -75 70q0 18 8 35l137 319q27 57 74 58q72 0 71 -74q0 -9 -4 -21l-139 -315q-31 -72 -72 -72zM881 88v625l-389 682q-14 27 -15 53q0 72 68 72q39 0 63 -43l359 -598l350 594q29 47 74 47q68 0 67 -66q0 -20 -12 -43l-412 -698v-625q0 -88 -76 -88t-77 88
z" />
    <glyph glyph-name="Omegatonos" unicode="&#x38f;" horiz-adv-x="1753" 
d="M92 1081q-76 0 -76 70q0 18 9 35l137 319q27 57 74 58q72 0 71 -74q0 -9 -4 -21l-139 -315q-31 -72 -72 -72zM1548 0h-383q-55 0 -54 55t67 92q137 80 227 257t90 360q0 264 -132 457t-370 192q-157 0 -273 -93q-220 -177 -220 -540q0 -180 98 -363t238 -267
q68 -38 68 -94t-54 -56h-397q-70 0 -70 75t70 75h178q-121 86 -205 261t-84 346t42 310q94 310 325 432q127 68 284 68q211 0 365 -118t226 -295q72 -178 71 -376q0 -198 -88 -376t-203 -250h184q70 0 70 -76t-70 -76z" />
    <glyph glyph-name="iotadieresistonos" unicode="&#x390;" horiz-adv-x="454" 
d="M162 1410q0 24 8 42l137 320q27 57 78 57q74 0 74 -74q0 -8 -4 -20l-140 -316q-31 -72 -73 -71q-39 0 -60 19q-20 19 -20 43zM457 1454q0 43 29 73q30 29 73 29t73 -30t30 -72q0 -43 -30 -73q-30 -29 -73 -29t-73 29q-29 30 -29 73zM-158 1454q0 43 30 73q30 29 73 29
t73 -30t29 -72q0 -43 -30 -73q-31 -29 -73 -29t-72 30t-30 72zM307 74q0 -74 -80 -74t-80 74v999q0 76 80 76t80 -76v-999z" />
    <glyph glyph-name="Alpha" unicode="&#x391;" horiz-adv-x="1263" 
d="M103 0q-65 0 -64 72q0 16 8 41l463 1310q35 93 119 93t119 -93l479 -1310q8 -18 8 -43q0 -70 -70 -70q-55 0 -73 49l-107 262h-704l-84 -233q-29 -78 -94 -78zM631 1307l-307 -840h606z" />
    <glyph glyph-name="Beta" unicode="&#x392;" horiz-adv-x="1210" 
d="M330 881h184q133 0 236 61q102 61 102 176q0 116 -87 182t-202 66h-233v-485zM330 741v-591h305q139 0 232 72t93 211q0 138 -117 223q-118 85 -280 85h-233zM178 100v1317q0 98 84 99h313q144 0 282 -81q69 -40 112 -114q43 -73 43 -175t-66 -193t-166 -122
q141 -23 246 -139q104 -117 104 -266q0 -184 -128 -305t-306 -121h-399q-67 0 -93 17t-26 83z" />
    <glyph glyph-name="Gamma" unicode="&#x393;" horiz-adv-x="1013" 
d="M178 76v1343q0 98 84 99h645q35 0 58 -23t22 -55q0 -72 -80 -72h-577v-1292q0 -76 -76 -76t-76 76z" />
    <glyph glyph-name="uni0394" unicode="&#x394;" horiz-adv-x="1298" 
d="M1151 0h-1030q-94 0 -94 51q0 18 8 37l489 1339q33 95 120 95t114 -95l508 -1339q8 -18 8 -39q0 -49 -123 -49zM641 1311l-418 -1149h850z" />
    <glyph glyph-name="Epsilon" unicode="&#x395;" horiz-adv-x="1060" 
d="M178 92v1331q0 92 84 93h623q76 0 76 -75t-76 -75h-557v-504h458q76 0 76 -78q0 -72 -76 -71h-458v-563h573q88 0 88 -75t-88 -75h-639q-52 0 -68 18t-16 74z" />
    <glyph glyph-name="Zeta" unicode="&#x396;" horiz-adv-x="1171" 
d="M164 1368q-78 0 -78 75t78 75h823q102 0 103 -66q0 -37 -41 -100l-797 -1202h784q80 0 80 -72q0 -78 -80 -78h-907q-72 0 -72 86q0 45 23 80l797 1202h-713z" />
    <glyph glyph-name="Eta" unicode="&#x397;" horiz-adv-x="1503" 
d="M178 74v1370q0 76 75 76t75 -76v-598h846v598q0 76 73 76q78 0 78 -76v-1370q0 -74 -76 -74t-75 74v620h-846v-620q0 -74 -75 -74t-75 74z" />
    <glyph glyph-name="Theta" unicode="&#x398;" horiz-adv-x="1497" 
d="M745 1413q-157 0 -273 -93q-220 -177 -220 -543t224 -554q116 -96 275 -96t275 94q220 178 221 543q0 264 -132 456t-370 193zM743 1567q211 0 365 -118t226 -295t71 -383q0 -206 -72 -382q-71 -176 -225 -293q-154 -116 -363 -116t-361 118t-221 295q-71 179 -71 357
t42 317q94 310 325 432q126 68 284 68zM1026 702h-567q-76 0 -76 76t76 76h567q76 0 76 -76t-76 -76z" />
    <glyph glyph-name="Iota" unicode="&#x399;" horiz-adv-x="505" 
d="M178 76v1368q0 76 75 76t75 -76v-1368q0 -76 -75 -76t-75 76z" />
    <glyph glyph-name="Kappa" unicode="&#x39a;" horiz-adv-x="1257" 
d="M178 66v1390q0 64 76 64t76 -64v-747l714 788q16 19 48 19t58 -26t26 -56t-21 -48l-440 -481l475 -772q24 -23 24 -57t-28 -57q-62 -49 -117 14l-465 760l-274 -289v-438q0 -66 -76 -66t-76 66z" />
    <glyph glyph-name="Lambda" unicode="&#x39b;" horiz-adv-x="1290" 
d="M115 0q-33 0 -62 22t-14 66l485 1339q33 95 117 95t117 -95l495 -1312q23 -70 -10 -98q-20 -17 -53 -17q-34 0 -52 20t-34 62l-463 1229l-451 -1250q-23 -61 -75 -61z" />
    <glyph glyph-name="Mu" unicode="&#x39c;" horiz-adv-x="1804" 
d="M899 0q-57 0 -84 88l-385 1241l-188 -1243q-12 -84 -83 -84t-71 70q0 16 2 24l203 1274q25 154 131 154q104 -1 143 -138l336 -1116l344 1116q41 133 148 134q106 0 127 -150l190 -1278l2 -16q0 -33 -22 -53t-54 -21q-70 0 -82 82l-174 1243l-399 -1239q-27 -88 -84 -88z
" />
    <glyph glyph-name="Nu" unicode="&#x39d;" horiz-adv-x="1478" 
d="M178 78v1352q0 90 74 90q57 0 106 -74l799 -1176v1170q0 78 75 78t75 -78v-1350q0 -90 -74 -90q-59 0 -103 61l-802 1172v-1155q0 -78 -75 -78t-75 78z" />
    <glyph glyph-name="Xi" unicode="&#x39e;" horiz-adv-x="1232" 
d="M145 156h947q86 0 86 -76t-86 -76h-947q-88 0 -88 76t88 76zM305 862h606q76 0 76 -78q0 -72 -76 -71h-606q-74 1 -74 75t74 74zM162 1518h911q76 0 76 -75t-76 -75h-911q-76 0 -76 75t76 75z" />
    <glyph glyph-name="Omicron" unicode="&#x39f;" horiz-adv-x="1497" 
d="M743 1413q-157 0 -273 -93q-220 -177 -220 -543t224 -554q116 -96 275 -96t275 94q220 178 221 543q0 264 -132 456t-370 193zM743 1567q211 0 365 -118t226 -295t71 -383q0 -206 -72 -382q-71 -176 -225 -293q-154 -116 -363 -116t-361 118t-221 295q-71 179 -71 357
t42 317q94 310 325 432q126 68 284 68z" />
    <glyph glyph-name="Pi" unicode="&#x3a0;" horiz-adv-x="1480" 
d="M252 1522h973q31 0 55 -24t23 -54v-1368q0 -76 -75 -76t-75 76v1292h-825v-1292q0 -76 -78 -76q-72 0 -72 76v1368q0 78 74 78z" />
    <glyph glyph-name="Rho" unicode="&#x3a1;" horiz-adv-x="1175" 
d="M586 1368h-258v-623h290q145 0 244 85q98 86 98 228t-102 226q-104 84 -272 84zM178 76v1360q0 82 84 82h352q214 0 358 -130t144 -329t-143 -331t-346 -132h-299v-520q0 -76 -75 -76t-75 76z" />
    <glyph glyph-name="Sigma" unicode="&#x3a3;" horiz-adv-x="1175" 
d="M657 798q0 -23 -14 -44l-393 -604h790q76 0 76 -78q0 -72 -76 -72h-909q-72 0 -72 86q0 45 23 80l383 592q14 25 14 43t-18 45l-336 504q-39 57 -39 100q0 68 104 68h824q76 0 76 -76t-76 -76h-715l338 -516q20 -29 20 -52z" />
    <glyph glyph-name="Tau" unicode="&#x3a4;" horiz-adv-x="997" 
d="M424 86v1282h-301q-82 0 -82 75t82 75h756q78 0 77 -76q0 -74 -77 -74h-304v-1282q0 -86 -73 -86q-78 0 -78 86z" />
    <glyph glyph-name="Upsilon" unicode="&#x3a5;" horiz-adv-x="1058" 
d="M451 88v625l-390 682q-14 27 -14 53q0 72 68 72q39 0 63 -43l359 -598l350 594q29 47 74 47q68 0 67 -66q0 -20 -12 -43l-412 -698v-625q0 -88 -76 -88t-77 88z" />
    <glyph glyph-name="Phi" unicode="&#x3a6;" horiz-adv-x="1470" 
d="M811 1241v-801q195 0 329 108t134 288t-135 292t-328 113zM662 440v801q-193 0 -329 -113q-136 -114 -136 -290q-1 -176 141 -287t324 -111zM662 1382v111q0 76 76 76t75 -76q0 -4 -4 -111q246 0 428 -154t182 -392q0 -236 -182 -386t-426 -151v-221q0 -78 -75 -78
t-74 78v221q-258 0 -435 150q-176 151 -176 389t183 391q184 153 428 153z" />
    <glyph glyph-name="Chi" unicode="&#x3a7;" horiz-adv-x="1212" 
d="M996 1518q34 0 57 -22t23 -50t-17 -49l-369 -545l479 -721q29 -45 29 -76q0 -57 -59 -57q-45 0 -78 45l-461 670l-428 -668q-31 -47 -78 -47q-59 0 -59 59q-1 33 24 70l455 707l-401 565q-41 62 2 101q20 20 55 20t63 -37l375 -514l330 512q24 37 58 37z" />
    <glyph glyph-name="Psi" unicode="&#x3a8;" horiz-adv-x="1562" 
d="M856 1493v-1024q221 0 334 124t113 353v500q1 76 77 76t76 -76v-526q0 -274 -165 -434t-435 -160v-252q0 -74 -75 -74t-74 74v252q-272 6 -436 164q-163 159 -162 430v526q1 74 75 74t74 -74v-500q0 -213 121 -345t328 -132v1024q1 76 75 76t74 -76z" />
    <glyph glyph-name="uni03A9" unicode="&#x3a9;" horiz-adv-x="1511" 
d="M1307 0h-383q-55 0 -56 61q2 49 68 86q137 80 227 257t90 360q0 264 -132 457t-369 192q-158 0 -274 -93q-220 -176 -220 -540q0 -180 98 -363t238 -267q68 -38 69 -94t-55 -56h-397q-70 0 -70 75t70 75h178q-121 86 -205 261t-84 346t42 310q94 310 325 432
q127 68 285 68q210 0 364 -118t226 -295q72 -178 71 -376q0 -198 -88 -376t-203 -250h185q70 0 70 -76t-70 -76z" />
    <glyph glyph-name="Iotadieresis" unicode="&#x3aa;" horiz-adv-x="505" 
d="M346 1720q0 43 30 73t73 30t73 -30t29 -73q0 -42 -30 -72q-31 -30 -73 -30t-72 30t-30 72zM-63 1720q0 43 29 73q30 30 73 30t73 -30t30 -73q0 -42 -30 -72t-73 -30t-73 30t-29 72zM178 1444q0 76 75 76t75 -76v-1368q0 -76 -75 -76t-75 76v1368z" />
    <glyph glyph-name="Upsilondieresis" unicode="&#x3ab;" horiz-adv-x="1058" 
d="M631 1720q0 43 29 73q30 30 73 30t73 -30t30 -73q0 -42 -30 -72t-73 -30t-73 30t-29 72zM221 1720q0 43 30 73t73 30q42 0 72 -30t30 -73q0 -42 -30 -72t-72 -30t-73 30q-30 30 -30 72zM47 1448q0 72 68 72q39 0 63 -43l359 -598l350 594q29 47 74 47q68 0 67 -66
q0 -20 -12 -43l-412 -698v-625q0 -88 -77 -88t-76 88v625l-390 682q-14 27 -14 53z" />
    <glyph glyph-name="alphatonos" unicode="&#x3ac;" horiz-adv-x="1191" 
d="M571 1327q-76 0 -75 70q0 18 8 35l137 319q27 57 74 57q72 0 71 -73q0 -9 -4 -21l-139 -315q-31 -72 -72 -72zM550 113q140 0 243 126q102 125 102 331t-98 331t-240 125q-141 0 -227 -139t-86 -325t83 -317q83 -132 223 -132zM891 1067q0 80 78 80t78 -80v-999
q0 -68 -78 -68t-78 70v123q-41 -86 -133 -153t-199 -67q-227 0 -352 172t-125 409t119 422q57 89 150 143q93 55 201 55t208 -54t131 -147v94z" />
    <glyph glyph-name="epsilontonos" unicode="&#x3ad;" horiz-adv-x="954" 
d="M475 1327q-76 0 -76 70q0 18 9 35l137 319q27 57 73 57q72 0 72 -73q0 -9 -4 -21l-139 -315q-31 -72 -72 -72zM510 -35q-194 0 -314 94t-120 224q0 88 75 180t187 123q-104 37 -156 105q-51 69 -51 140q0 133 122 225t288 91q115 0 218 -32t103 -95q0 -34 -22 -58
t-46 -24q-26 0 -75 23q-91 45 -193 45t-173 -54t-70 -135q0 -51 55 -100t141 -49h125q47 0 72 -23q24 -23 24 -55t-24 -54q-24 -24 -66 -24h-127q-113 -23 -179 -82t-66 -135t72 -131t199 -55q126 0 239 45q70 24 98 24t42 -16q15 -16 15 -50t-53 -76t-223 -64
q-62 -7 -117 -7z" />
    <glyph glyph-name="etatonos" unicode="&#x3ae;" horiz-adv-x="1144" 
d="M512 1327q-76 0 -76 70q0 18 8 35l138 319q27 57 73 57q72 0 72 -73q0 -9 -4 -21l-139 -315q-31 -72 -72 -72zM145 74v999q0 80 77 80t77 -80v-69q96 170 305 170q158 0 280 -109t122 -283v-1200q0 -74 -77 -74t-77 74v1135q0 145 -81 226t-193 81t-196 -82
q-83 -82 -83 -225v-643q0 -74 -77 -74t-77 74z" />
    <glyph glyph-name="iotatonos" unicode="&#x3af;" horiz-adv-x="454" 
d="M227 1327q-76 0 -75 70q0 18 8 35l137 319q27 57 74 57q72 0 71 -73q0 -9 -4 -21l-139 -315q-31 -72 -72 -72zM307 1073v-999q0 -74 -80 -74t-80 74v999q0 76 80 76t80 -76z" />
    <glyph glyph-name="upsilondieresistonos" unicode="&#x3b0;" horiz-adv-x="1130" 
d="M700 1829q74 0 74 -74q0 -8 -4 -20l-139 -316q-31 -71 -72 -71q-80 1 -82 69q0 18 8 35l138 320q27 57 77 57zM772 1454q0 43 30 73q30 29 72 29t73 -30q30 -30 30 -72q0 -43 -30 -73q-30 -29 -73 -29q-42 0 -72 30t-30 72zM158 1454q0 43 29 73q30 29 73 29t73 -30
q29 -30 29 -72q0 -43 -30 -73q-30 -29 -72 -29q-43 0 -73 29q-29 30 -29 73zM135 1061q0 76 77 76t77 -76v-641q0 -125 77 -208q78 -83 198 -83t199 83t79 208v641q0 76 77 76t76 -76v-690q0 -168 -129 -282t-303 -114t-301 112t-127 284v690z" />
    <glyph glyph-name="alpha" unicode="&#x3b1;" horiz-adv-x="1191" 
d="M550 113q140 0 243 126q102 125 102 331t-98 331t-240 125q-141 0 -227 -139t-86 -325t83 -317q83 -132 223 -132zM891 1067q0 80 78 80t78 -80v-999q0 -68 -78 -68t-78 70v123q-41 -86 -133 -153t-199 -67q-227 0 -352 172t-125 409t119 422q57 89 150 143q93 55 201 55
t208 -54t131 -147v94z" />
    <glyph glyph-name="beta" unicode="&#x3b2;" horiz-adv-x="1169" 
d="M436 905q0 57 82 72q134 0 146 6q143 48 143 228q0 89 -66 160t-158 71t-147 -28q-97 -49 -121 -201q-10 -62 -10 -148l-2 -639q0 -133 85 -214t220 -81t229 109q93 109 93 240q0 130 -70 218t-178 125q-8 0 -104 6l-58 5q-84 14 -84 71zM305 -383q0 -88 -78 -88t-77 86
v1530q0 199 110 321t302 121q193 0 301 -121t108 -276q0 -72 -52 -152t-110 -110q131 -60 208 -184t77 -252q0 -201 -136 -355t-349 -154q-212 0 -304 123v-489z" />
    <glyph glyph-name="gamma" unicode="&#x3b3;" horiz-adv-x="1001" 
d="M420 -379v418l-375 1028q-4 12 -4 36t26 44t56 20q66 0 94 -82l285 -829l284 834q29 78 86 77q31 1 57 -23q25 -24 25 -50t-4 -33l-47 -127q-283 -752 -319 -895v-420q0 -96 -82 -96t-82 98z" />
    <glyph glyph-name="delta" unicode="&#x3b4;" horiz-adv-x="1134" 
d="M948 1440q0 -23 -18 -43q-18 -21 -40 -21t-75 17q-71 35 -185 35t-177 -42q-63 -41 -63 -105t68 -131q69 -67 165 -105q97 -39 161 -77t132 -102q142 -133 141 -362q0 -230 -130 -378q-131 -148 -357 -148t-360 154q-134 155 -134 374q0 156 104 299t264 190
q-90 47 -148 127t-58 158q0 123 104 209t305 86q85 0 193 -37t108 -98zM567 879q-155 0 -243 -112q-88 -111 -88 -263t95 -268t241 -117q146 0 238 101q93 101 93 266t-91 279t-245 114z" />
    <glyph glyph-name="epsilon" unicode="&#x3b5;" horiz-adv-x="954" 
d="M510 -35q-194 0 -314 94t-120 224q0 88 75 180t187 123q-104 37 -156 105q-51 69 -51 140q0 133 122 225t288 91q115 0 218 -32t103 -95q0 -34 -22 -58t-46 -24q-26 0 -75 23q-91 45 -193 45t-173 -54t-70 -135q0 -51 55 -100t141 -49h125q47 0 72 -23q24 -23 24 -55
t-24 -54q-24 -24 -66 -24h-127q-113 -23 -179 -82t-66 -135t72 -131t199 -55q126 0 239 45q70 24 98 24t42 -16q15 -16 15 -50t-53 -76t-223 -64q-62 -7 -117 -7z" />
    <glyph glyph-name="zeta" unicode="&#x3b6;" horiz-adv-x="892" 
d="M780 -397q-27 1 -47 23t-20 40q-1 18 35 78t36 105t-34 73t-68 38q-36 12 -104 28t-142 36t-128 55q-123 82 -167 171q-59 120 -59 291q0 242 178 505t414 390h-400q-42 0 -70 18t-28 54t28 56t70 19h596q78 0 78 -72q0 -57 -74 -79q-70 -27 -172 -110
q-258 -210 -380 -471q-72 -155 -72 -300q0 -207 96 -300q35 -34 74 -61t104 -45q66 -19 144 -39t112 -32q154 -59 154 -207q0 -98 -42 -181t-112 -83z" />
    <glyph glyph-name="eta" unicode="&#x3b7;" horiz-adv-x="1144" 
d="M145 74v999q0 80 77 80t77 -80v-69q96 170 305 170q158 0 280 -109t122 -283v-1200q0 -74 -77 -74t-77 74v1135q0 145 -81 226t-193 81t-196 -82q-83 -82 -83 -225v-643q0 -74 -77 -74t-77 74z" />
    <glyph glyph-name="theta" unicode="&#x3b8;" horiz-adv-x="1187" 
d="M600 1432q-92 0 -164 -70t-108 -180q-70 -217 -70 -424t69 -397q35 -101 105 -165t163 -65q93 0 162 66q113 109 153 372q30 199 0 397q-40 278 -152 396q-66 70 -158 70zM772 713h-352q-74 -1 -74 75t74 76h352q70 0 70 -76t-70 -75zM593 1585q132 0 233 -81
q102 -81 156 -210q108 -257 108 -534t-111 -515q-55 -118 -157 -190q-102 -71 -233 -71q-132 0 -233 74q-169 127 -231 448q-25 129 -25 264t26 268q65 335 234 468q101 79 233 79z" />
    <glyph glyph-name="iota" unicode="&#x3b9;" horiz-adv-x="454" 
d="M307 1073v-999q0 -74 -80 -74t-80 74v999q0 76 80 76t80 -76z" />
    <glyph glyph-name="kappa" unicode="&#x3ba;" horiz-adv-x="1093" 
d="M1049 69q0 -73 -81 -73q-40 0 -67 45l-381 543l-223 -203v-307q0 -74 -77 -74t-77 74v997q0 76 77 76t77 -76v-502l584 551q20 18 52 18q33 0 55 -18q22 -20 22 -51t-43 -74l-328 -307q118 -168 377 -530q33 -55 33 -89z" />
    <glyph glyph-name="lambda" unicode="&#x3bb;" horiz-adv-x="958" 
d="M244 1527q0 20 24 38q25 18 60 18q63 0 96 -88l475 -1370q10 -31 10 -51q1 -74 -69 -74t-95 70l-258 755l-272 -749q-27 -76 -97 -76t-71 63q0 21 8 39l355 942q-39 100 -162 447q-4 16 -4 36z" />
    <glyph glyph-name="uni03BC" unicode="&#x3bc;" horiz-adv-x="1148" 
d="M147 -408v1469q0 76 75 76t75 -76v-674q0 -109 73 -177q72 -68 194 -69t206 95t84 237v588q0 76 75 76t75 -76v-973q0 -88 -74 -88t-74 78q-2 33 -2 78q-113 -172 -324 -172q-66 0 -132 32t-101 84v-508q0 -76 -76 -75q-74 -1 -74 75z" />
    <glyph glyph-name="nu" unicode="&#x3bd;" horiz-adv-x="944" 
d="M823 1139q74 0 74 -72q0 -18 -6 -33l-334 -973q-19 -61 -87 -61t-89 61l-326 971q-6 18 -6 43t22 44t56 20q59 0 90 -90l254 -777l258 779q31 88 94 88z" />
    <glyph glyph-name="xi" unicode="&#x3be;" horiz-adv-x="878" 
d="M752 -397q-27 1 -47 23q-21 22 -21 40t36 78t36 109q0 72 -101 106q-43 15 -109 31q-232 58 -310 114q-113 84 -138 154q-24 69 -24 137q0 164 121 291t258 156q-129 39 -193 106q-63 68 -63 150q0 121 116 222q117 101 291 116h-338q-42 0 -70 18t-28 54t28 56t70 19
h576q78 0 78 -72q0 -78 -66 -86q-133 -13 -293 -76q-86 -35 -142 -97q-57 -62 -57 -140t102 -134t162 -56q62 0 97 -24t35 -60t-34 -61q-34 -23 -88 -23q-123 1 -251 -86q-59 -41 -97 -112q-38 -72 -38 -140t24 -112t58 -71q33 -27 96 -55t149 -52q85 -23 153 -45t123 -78
q54 -56 54 -139q1 -83 -43 -172t-112 -89z" />
    <glyph glyph-name="omicron" unicode="&#x3bf;" horiz-adv-x="1159" 
d="M580 119q164 0 250 127t85 304q-1 176 -89 326t-249 150t-246 -129t-85 -307q0 -255 144 -395q79 -76 190 -76zM580 1174q156 0 272 -92q224 -176 225 -521q0 -244 -132 -414t-365 -170q-234 1 -366 177t-132 422t132 422t366 176z" />
    <glyph glyph-name="pi" unicode="&#x3c0;" horiz-adv-x="1163" 
d="M145 74v989q-1 33 19 57t51 23h727q76 0 76 -82v-987q0 -74 -76 -74t-76 74v925h-565v-925q0 -74 -78 -74t-78 74z" />
    <glyph glyph-name="rho" unicode="&#x3c1;" horiz-adv-x="1185" 
d="M127 -395v973q0 260 132 428t366 168q233 0 355 -168t122 -436t-136 -430q-136 -163 -348 -163q-92 -1 -183 47t-152 148v-567q0 -76 -78 -76t-78 76zM633 1028q-170 0 -258 -118t-88 -334t100 -333q99 -118 235 -118t232 118t96 307t-70 324q-36 70 -100 112t-147 42z
" />
    <glyph glyph-name="sigma1" unicode="&#x3c2;" horiz-adv-x="1013" 
d="M662 993q-170 0 -292 -123t-122 -323q0 -162 61 -241q33 -42 76 -82q49 -45 245 -93t253 -106t57 -159t-42 -184t-112 -83q-27 1 -47 23t-20 42q1 20 33 87t32 101t-32 64q-33 29 -69 41q-37 13 -101 29t-138 37t-131 59q-126 87 -180 197q-53 110 -53 290q0 252 180 422
t410 170q115 0 237 -55q31 -14 51 -37q44 -50 -1 -101q-22 -26 -41 -26t-31 4q-110 47 -223 47z" />
    <glyph glyph-name="sigma" unicode="&#x3c3;" horiz-adv-x="1247" 
d="M578 121q162 0 254 127t92 300q0 172 -91 322t-250 150t-248 -130t-89 -304q0 -249 145 -390q78 -75 187 -75zM1168 1001q-32 0 -296 23q92 -66 150 -200t57 -271q0 -244 -136 -410t-374 -166q-155 1 -269 91q-218 173 -218 520q0 246 137 410t377 163l557 -2
q41 -4 70 -24q29 -21 29 -53t-26 -56t-58 -25z" />
    <glyph glyph-name="tau" unicode="&#x3c4;" horiz-adv-x="909" 
d="M80 1139h713q82 0 81 -70q0 -70 -77 -70h-285v-632q0 -135 27 -191t119 -55q92 0 94 -68q0 -72 -93 -71q-174 0 -237 95t-64 290v630h-268q-76 0 -76 74q0 68 66 68z" />
    <glyph glyph-name="upsilon" unicode="&#x3c5;" horiz-adv-x="1130" 
d="M135 371v690q0 76 77 76t77 -76v-641q0 -125 77 -208q78 -83 198 -83t199 83t79 208v641q0 76 77 76t76 -76v-690q0 -168 -129 -282t-303 -114t-301 112t-127 284z" />
    <glyph glyph-name="phi" unicode="&#x3c6;" horiz-adv-x="1468" 
d="M1227 612q0 213 -109 353q-61 77 -152 77t-134 -57t-54 -170q-2 -31 -4 -97t-4 -85v-508q209 2 333 138t124 349zM434 1165q26 0 48 -15t22 -45t-45 -67q-101 -84 -161 -218t-60 -284t96 -268q96 -119 282 -143v512q0 320 87 431q36 46 104 77t164 31q131 0 230 -92
t143 -220q44 -127 45 -260q0 -266 -172 -441t-447 -179v-381q0 -78 -77 -78t-77 78v381q-178 6 -302 90q-232 157 -232 481q0 182 82 348t227 252q16 10 43 10z" />
    <glyph glyph-name="chi" unicode="&#x3c7;" horiz-adv-x="929" 
d="M168 -416q-30 -66 -98 -66t-68 65q0 20 18 65l345 747l-297 611q-16 37 -17 61q0 76 76 76q57 0 78 -49l250 -527l278 523q25 49 66 49t63 -23q22 -22 23 -54q0 -32 -15 -61l-329 -606l368 -743q27 -62 9 -94q-16 -35 -70 -35t-88 69l-307 639q-47 -109 -143 -323
t-142 -324z" />
    <glyph glyph-name="psi" unicode="&#x3c8;" horiz-adv-x="1435" 
d="M795 1202v-1085q180 2 269 125t89 327v500q0 94 76 94q35 -1 59 -27t25 -69v-483q0 -262 -136 -432t-382 -175v-348q0 -109 -78 -108q-76 0 -76 108v348q-246 3 -381 175t-135 432v483q0 98 74 98q35 1 61 -27t25 -69v-485q0 -461 356 -467v1085q0 82 77 82t77 -82z" />
    <glyph glyph-name="omega" unicode="&#x3c9;" horiz-adv-x="1345" 
d="M940 -18q-184 0 -268 237q-43 -119 -116 -177t-157 -58q-123 0 -218 128t-95 342t71 392t189 282q23 18 56 18t48 -16q15 -18 15 -44t-37 -62q-188 -227 -188 -575q0 -152 53 -236t119 -84t118 67q51 67 64 181v395q0 41 24 65q25 23 57 23q33 0 55 -22t22 -58v-403
q12 -115 63 -181t118 -67q67 0 122 85t55 237q0 338 -199 577q-53 63 -15 106q15 17 48 17t55 -18q260 -229 261 -682q0 -211 -96 -340t-224 -129z" />
    <glyph glyph-name="iotadieresis" unicode="&#x3ca;" horiz-adv-x="454" 
d="M330 1454q0 43 29 73q30 29 73 29t73 -30t30 -72q0 -43 -30 -73q-30 -29 -73 -29t-73 29q-29 30 -29 73zM-80 1454q0 43 30 73q30 29 73 29t73 -30t29 -72q0 -43 -30 -73q-31 -29 -73 -29t-72 30t-30 72zM307 74q0 -74 -80 -74t-80 74v999q0 76 80 76t80 -76v-999z" />
    <glyph glyph-name="upsilondieresis" unicode="&#x3cb;" horiz-adv-x="1130" 
d="M655 1454q0 43 30 73q30 29 73 29q42 0 72 -30t30 -72q0 -43 -30 -73q-30 -29 -72 -29t-73 30q-30 30 -30 72zM246 1454q0 43 29 73q30 29 73 29t73 -30t30 -72q0 -43 -30 -73q-30 -29 -73 -29t-73 29q-29 30 -29 73zM135 1061q0 76 77 76t77 -76v-641q0 -125 77 -208
q78 -83 198 -83t199 83t79 208v641q0 76 77 76t76 -76v-690q0 -168 -129 -282t-303 -114t-301 112t-127 284v690z" />
    <glyph glyph-name="omicrontonos" unicode="&#x3cc;" horiz-adv-x="1159" 
d="M571 1327q-76 0 -75 70q0 18 8 35l137 319q27 57 74 57q72 0 71 -73q0 -9 -4 -21l-139 -315q-31 -72 -72 -72zM580 119q164 0 250 127t85 304q-1 176 -89 326t-249 150t-246 -129t-85 -307q0 -255 144 -395q79 -76 190 -76zM580 1174q156 0 272 -92q224 -176 225 -521
q0 -244 -132 -414t-365 -170q-234 1 -366 177t-132 422t132 422t366 176z" />
    <glyph glyph-name="upsilontonos" unicode="&#x3cd;" horiz-adv-x="1130" 
d="M543 1327q-76 0 -76 70q0 18 8 35l137 319q27 57 74 57q72 0 72 -73q0 -9 -4 -21l-140 -315q-31 -72 -71 -72zM135 371v690q0 76 77 76t77 -76v-641q0 -125 77 -208q78 -83 198 -83t199 83t79 208v641q0 76 77 76t76 -76v-690q0 -168 -129 -282t-303 -114t-301 112
t-127 284z" />
    <glyph glyph-name="omegatonos" unicode="&#x3ce;" horiz-adv-x="1345" 
d="M659 1325q-76 0 -75 70q0 18 8 35l137 319q27 57 74 57q72 0 71 -73q0 -9 -4 -21l-139 -315q-31 -72 -72 -72zM940 -18q-184 0 -268 237q-43 -119 -116 -177t-157 -58q-123 0 -218 128t-95 342t71 392t189 282q23 18 56 18t48 -16q15 -18 15 -44t-37 -62
q-188 -227 -188 -575q0 -152 53 -236t119 -84t118 67q51 67 64 181v395q0 41 24 65q25 23 57 23q33 0 55 -22t22 -58v-403q12 -115 63 -181t118 -67q67 0 122 85t55 237q0 338 -199 577q-53 63 -15 106q15 17 48 17t55 -18q260 -229 261 -682q0 -211 -96 -340t-224 -129z
" />
    <glyph glyph-name="endash" unicode="&#x2013;" horiz-adv-x="1468" 
d="M215 645h1036q88 0 88 -78t-88 -78h-1036q-88 0 -88 76q1 33 25 57t63 23z" />
    <glyph glyph-name="emdash" unicode="&#x2014;" horiz-adv-x="1867" 
d="M223 645h1442q88 0 88 -78t-88 -78h-1442q-88 0 -88 76q1 33 25 57t63 23z" />
    <glyph glyph-name="quoteleft" unicode="&#x2018;" horiz-adv-x="452" 
d="M149 1546q38 0 56 -41l153 -360q8 -10 8 -31q0 -22 -25 -44q-26 -22 -52 -21q-55 0 -84 71l-137 334q-21 43 11 67q32 25 70 25z" />
    <glyph glyph-name="quoteright" unicode="&#x2019;" horiz-adv-x="450" 
d="M304 1546q38 0 70 -24t11 -68l-137 -334q-29 -72 -84 -71q-26 1 -52 23t-26 42t8 31l154 360q18 41 56 41z" />
    <glyph glyph-name="quotesinglbase" unicode="&#x201a;" horiz-adv-x="428" 
d="M91 -270q-39 0 -63 19t-24 39t6 34l137 334q27 66 89 65q26 0 50 -19t24 -40t-9 -31l-154 -360q-18 -41 -56 -41z" />
    <glyph glyph-name="quotedblleft" unicode="&#x201c;" horiz-adv-x="800" 
d="M715 1114q0 -22 -26 -44t-52 -21q-55 0 -84 71l-137 334q-6 12 -6 33t24 40q25 19 63 19t56 -41l154 -360q8 -10 8 -31zM149 1546q38 0 56 -41l153 -360q8 -10 8 -31q0 -22 -25 -44q-26 -22 -52 -21q-55 0 -84 71l-137 334q-21 43 11 67q32 25 70 25z" />
    <glyph glyph-name="quotedblright" unicode="&#x201d;" horiz-adv-x="798" 
d="M304 1546q38 0 70 -24t11 -68l-137 -334q-29 -72 -84 -71q-26 1 -52 23t-26 42t8 31l154 360q18 41 56 41zM652 1546q38 0 70 -24t11 -68l-137 -334q-29 -72 -84 -71q-26 1 -52 23t-26 42t8 31l154 360q18 41 56 41z" />
    <glyph glyph-name="quotedblbase" unicode="&#x201e;" horiz-adv-x="755" 
d="M419 -270q-38 0 -70 24t-11 68l137 334q10 27 36 46q25 19 53 19t50 -19t23 -40q0 -21 -8 -31l-154 -360q-18 -41 -56 -41zM91 -270q-39 0 -63 19t-24 39t6 34l137 334q12 27 37 47t53 20q29 0 51 -20t22 -41t-9 -31l-154 -360q-18 -41 -56 -41z" />
    <glyph glyph-name="dagger" unicode="&#x2020;" horiz-adv-x="1032" 
d="M895 987h-305v-887q0 -100 -72 -100q-34 0 -56 28t-22 72v887h-301q-76 0 -76 78q0 72 76 72h301v299q0 46 23 74t55 28q72 0 72 -102v-299h305q76 0 76 -78q0 -72 -76 -72z" />
    <glyph glyph-name="daggerdbl" unicode="&#x2021;" horiz-adv-x="1103" 
d="M625 563h305q76 0 76 -78q0 -72 -76 -71h-305v-322q0 -100 -72 -100q-33 0 -55 28t-23 72v322h-301q-76 0 -76 78q0 72 76 71h301v424h-301q-76 0 -76 76t76 76h301v299q0 44 23 72t55 28q72 0 72 -100v-299h305q76 0 76 -76t-76 -76h-305v-424z" />
    <glyph glyph-name="bullet" unicode="&#x2022;" horiz-adv-x="987" 
d="M494 1061q154 0 252 -100t100 -254q0 -154 -100 -255q-100 -102 -252 -102q-154 0 -253 102t-100 255q-1 154 99 254t254 100z" />
    <glyph glyph-name="ellipsis" unicode="&#x2026;" horiz-adv-x="1107" 
d="M115 102q0 43 29 73q30 30 73 30t73 -30t30 -73q0 -42 -30 -72t-73 -30t-73 30t-29 72zM791 102q0 43 29 73q30 30 73 30t73 -30t30 -73q0 -42 -30 -72t-73 -30t-73 30t-29 72zM463 102q0 43 30 73q31 30 73 30t72 -30t30 -73q0 -42 -30 -72t-73 -30t-73 30t-29 72z" />
    <glyph glyph-name="perthousand" unicode="&#x2030;" horiz-adv-x="2373" 
d="M1976 88q96 0 151 76q54 76 54 179t-55 186q-54 83 -150 83t-151 -78t-55 -182t54 -184q56 -80 152 -80zM1630 358q0 160 94 266t249 105q155 0 246 -114q91 -115 91 -273t-89 -263t-246 -105t-251 111q-94 113 -94 273zM487 -43q-59 0 -59 66q0 18 10 49l557 1429
q25 61 82 61t58 -67q0 -19 -23 -85q-22 -66 -274 -708t-281 -694q-29 -51 -70 -51zM407 911q97 0 152 77t55 182q0 106 -56 186t-151 80t-149 -75t-55 -181q0 -106 53 -188q54 -81 151 -81zM406 795q-154 -1 -248 115t-94 275t92 263q94 104 249 104t247 -110t93 -271
q-1 -160 -93 -268t-246 -108zM1166 612q-96 0 -150 -78q-55 -78 -55 -184t53 -184t151 -78t153 76q54 76 54 179t-55 186t-151 83zM821 358q0 160 94 266t249 105q155 0 246 -114q91 -115 91 -273t-89 -263t-246 -105t-251 111q-94 113 -94 273z" />
    <glyph glyph-name="guilsinglleft" unicode="&#x2039;" horiz-adv-x="1271" 
d="M1118 1110q72 0 72 -61q0 -55 -70 -88l-844 -406l828 -401q74 -38 74 -96t-70 -58q-33 0 -76 18l-909 453q-72 37 -72 95t72 93l932 435q39 16 63 16z" />
    <glyph glyph-name="guilsinglright" unicode="&#x203a;" horiz-adv-x="1277" 
d="M88 1055q0 63 72 63q23 0 49 -10l928 -455q90 -47 90 -96q0 -57 -107 -108l-911 -437q-25 -10 -45 -10q-74 0 -74 72q0 57 66 88l827 385l-827 422q-68 35 -68 86z" />
    <glyph glyph-name="Euro" unicode="&#x20ac;" horiz-adv-x="1515" 
d="M145 532q-76 0 -75 72q0 72 75 72h97q-4 57 -4 96t2 64h-95q-76 0 -75 71q0 72 75 72h115q56 256 234 424t442 168t444 -168q39 -33 39 -72q1 -39 -21 -61t-56 -23q-34 0 -60 25q-129 129 -335 129t-336 -118t-177 -304h713q80 0 80 -72t-80 -71h-735q-2 -20 -2 -66
t6 -94h524q80 0 80 -72t-80 -72h-494q54 -176 182 -286t320 -109q192 0 332 139q23 23 51 23q74 0 74 -76q0 -47 -31 -76q-196 -170 -450 -170q-254 -1 -428 155t-232 400h-119z" />
    <glyph glyph-name="trademark" unicode="&#x2122;" horiz-adv-x="1378" 
d="M1260 815q0 -35 -36 -35t-42 41l-92 633l-203 -633q-14 -45 -42 -45t-42 45l-195 633l-92 -633q-6 -43 -41 -43t-35 35v12l103 670q9 63 65 63t70 -55l168 -590l176 590q18 55 72 56q55 0 63 -64l103 -670v-10zM256 821v649h-152q-36 0 -36 37t36 37h379q39 0 39 -37
t-39 -37h-151v-649q0 -51 -38 -51t-38 51z" />
    <glyph glyph-name="Omega" unicode="&#x2126;" horiz-adv-x="1517" 
d="M1309 0h-383q-55 0 -56 61q2 49 68 86q137 80 227 257t90 360q0 264 -132 457t-369 192q-158 0 -274 -93q-220 -176 -220 -540q0 -180 98 -363t238 -267q68 -38 69 -94t-55 -56h-397q-70 0 -70 75t70 75h178q-121 86 -205 261t-84 346t42 310q94 310 325 432
q127 68 285 68q210 0 364 -118t226 -295q72 -178 71 -376q0 -198 -88 -376t-203 -250h185q70 0 70 -76t-70 -76z" />
    <glyph glyph-name="Delta" unicode="&#x2206;" horiz-adv-x="1363" 
d="M1184 0h-1030q-94 0 -95 51q0 18 9 37l489 1339q33 95 120 95t114 -95l507 -1339q8 -18 9 -39q0 -49 -123 -49zM674 1311l-418 -1149h850z" />
    <glyph glyph-name="integral" unicode="&#x222b;" horiz-adv-x="614" 
d="M512 1536q25 0 45 -20t21 -43q0 -53 -89 -54q-115 0 -114 -155l2 -1315q0 -145 -72 -197t-205 -53q-27 0 -46 19t-19 44q0 53 88 54q115 -1 115 155l-2 1315q0 145 71 198q72 52 205 52z" />
    <glyph glyph-name="approxequal" unicode="&#x2248;" horiz-adv-x="1265" 
d="M193 627q-68 0 -68 78q0 77 94 161t185 84q92 0 236 -78t194 -78t82 40l64 76t75 38q72 0 71 -90q0 -68 -103 -150t-191 -81t-223 77q-134 76 -198 76t-120 -73q-57 -80 -98 -80zM209 258q-68 0 -68 78q1 78 95 162t185 84t235 -78t198 -78t110 77t107 77q72 0 72 -91
q1 -67 -103 -149t-192 -82t-222 77t-198 77t-121 -74q-57 -80 -98 -80z" />
    <glyph glyph-name="notequal" unicode="&#x2260;" horiz-adv-x="1378" 
d="M207 303q-74 0 -74 75t74 75h344l106 274h-450q-74 0 -74 75t74 75h510l172 440q25 61 80 61q27 0 44 -19t17 -46t-12 -53l-152 -383h303q76 0 76 -78q0 -72 -76 -72h-362l-109 -274h471q76 0 76 -75t-76 -75h-530l-193 -487q-10 -31 -65 -31q-23 0 -39 19t-16 44t6 39
l162 416h-287z" />
    <glyph glyph-name="zero.onum" horiz-adv-x="1200" 
d="M601 133q161 0 250 138t89 331t-89 336t-251 143t-252 -138t-90 -332t91 -336t252 -142zM598 1243h8q162 0 278 -93q220 -176 220 -538t-222 -541q-118 -95 -280 -95t-280 92q-224 178 -226 540q0 164 55 305t171 235t276 95z" />
    <glyph glyph-name="one.onum" horiz-adv-x="641" 
d="M342 88v971l-201 -58q-21 -4 -39 -4q-18 1 -38 19t-21 49q0 66 76 86q305 86 313 86q49 0 66 -41q10 -20 10 -104v-1004q0 -40 -23 -64t-61 -24t-60 24t-22 64z" />
    <glyph glyph-name="two.onum" horiz-adv-x="1067" 
d="M90 836q0 188 133 305t304 117t300 -110q129 -108 129 -276q0 -48 -5 -80t-36 -96t-90 -131q-139 -161 -456 -409h534q76 0 76 -78t-78 -78h-678q-113 0 -112 74q0 37 30 76q315 270 446 395q130 125 166 183t35 130q0 110 -80 176t-187 66t-185 -73t-78 -202
q0 -35 -22 -67t-60 -31q-38 0 -62 34t-24 75z" />
    <glyph glyph-name="three.onum" horiz-adv-x="1048" 
d="M102 905q0 135 114 243t287 109q173 -1 285 -117t111 -298q0 -182 -170 -328q115 -72 173 -178t59 -223q0 -183 -127 -317t-336 -134q-117 0 -213 52q-95 52 -149 129t-54 133q0 98 70 98q53 0 75 -54q84 -195 269 -194q123 0 210 77t87 200q-1 123 -63 209t-177 104
q-25 4 -119 5t-94 75t94 74t115 3q86 17 134 99t48 188q1 106 -65 174q-66 70 -168 70t-166 -60t-64 -153q0 -94 -78 -94q-88 0 -88 108z" />
    <glyph glyph-name="four.onum" horiz-adv-x="1130" 
d="M737 276v805l-499 -805h499zM737 -170v291h-583q-51 -1 -80 27t-29 70t27 77l534 862q59 96 158 96q57 0 94 -40t37 -107v-830h98q76 0 76 -76t-68 -77h-106v-293q0 -96 -79 -96t-79 96z" />
    <glyph glyph-name="five.onum" horiz-adv-x="1054" 
d="M412 1229h438q35 0 55 -26t21 -62q0 -78 -76 -78h-422l-68 -395q68 16 156 16q219 0 341 -141t122 -343t-133 -357t-373 -154q-170 0 -297 85t-127 173q-1 35 19 54t53 19t69 -48t123 -90q86 -40 170 -40q143 0 237 104t95 242q0 136 -89 240t-249 104q-57 0 -115 -17
t-88 -17q-84 0 -84 75q0 18 105 574q15 82 117 82z" />
    <glyph glyph-name="six.onum" horiz-adv-x="1091" 
d="M558 827q-150 0 -227 -99t-77 -240t85 -251t226 -110q141 11 225 117t82 244q0 138 -82 239q-82 100 -232 100zM607 979q179 0 300 -137t121 -348t-131 -365t-344 -154t-336 161q-123 162 -123 408t146 494q145 248 372 453q35 31 71 31q37 0 61 -22t24 -54t-23 -55
q-127 -119 -243 -267t-166 -254q92 109 271 109z" />
    <glyph glyph-name="seven.onum" horiz-adv-x="970" 
d="M129 1225h725q39 0 67 -27q46 -45 15 -123l-543 -1284q-37 -84 -98 -84q-72 0 -72 80q0 29 10 49l521 1223h-625q-94 0 -94 83t94 83z" />
    <glyph glyph-name="eight.onum" horiz-adv-x="1107" 
d="M556 911q103 0 162 78q58 78 58 186t-65 171q-66 63 -158 63t-163 -63t-71 -172t67 -186t170 -77zM840 447q0 131 -81 221t-203 90t-204 -91t-82 -220t80 -219t207 -91q127 0 205 90t78 220zM558 1561q167 1 279 -105t111 -272q0 -199 -198 -336q122 -57 192 -168
t70 -242q0 -190 -131 -326t-329 -136t-326 132t-128 336q0 125 72 233t184 159q-199 123 -198 348q0 160 118 268t284 109z" />
    <glyph glyph-name="nine.onum" horiz-adv-x="1097" 
d="M856 708q0 158 -84 268t-240 111t-238 -111t-81 -264q0 -152 93 -247q93 -96 229 -96t229 90q92 91 92 249zM520 215q-215 0 -342 156q-127 157 -127 365t127 359q126 151 350 151t354 -160q130 -159 130 -402q0 -154 -43 -310t-171 -352t-331 -360q-27 -22 -61 -22
t-54 18t-20 55t39 72q139 121 257 273t154 247q-100 -90 -262 -90z" />
    <glyph glyph-name="A.smcp" horiz-adv-x="1259" 
d="M101 0q-65 0 -64 72q0 16 8 41l463 968q33 93 119 93t118 -93l480 -968q8 -18 8 -43q0 -70 -70 -70q-55 0 -73 49l-140 262h-645l-110 -233q-29 -78 -94 -78zM625 973l-248 -506h500z" />
    <glyph glyph-name="B.smcp" horiz-adv-x="1179" 
d="M317 662h246q279 0 279 178q0 68 -54 112t-176 45h-295v-335zM317 512v-362h347q130 0 202 49t72 136t-90 132t-215 45h-316zM166 100v949q0 98 84 98h375q159 0 267 -69t107 -210q0 -92 -60 -160t-163 -100q148 -4 238 -86t90 -206t-104 -220t-275 -96h-440
q-67 0 -93 17t-26 83z" />
    <glyph glyph-name="C.smcp" horiz-adv-x="1249" 
d="M1102 299q74 0 74 -76q0 -47 -31 -76q-195 -170 -453 -170t-430 168q-172 167 -172 435t175 435t441 167t445 -168q39 -33 39 -72q0 -40 -22 -62t-56 -22t-59 25q-129 129 -329 129t-330 -112q-132 -112 -132 -312t129 -325q129 -126 325 -126t335 139q23 23 51 23z" />
    <glyph glyph-name="D.smcp" horiz-adv-x="1308" 
d="M668 997h-351v-847h322q182 0 300 102t118 317q-1 215 -115 321t-274 107zM166 84v965q0 98 119 98h405q221 0 375 -155t154 -426q0 -270 -165 -418t-405 -148h-397q-51 0 -69 16q-17 17 -17 68z" />
    <glyph glyph-name="E.smcp" horiz-adv-x="1044" 
d="M166 92v963q0 92 84 92h622q76 0 76 -75t-76 -75h-557v-319h459q76 0 76 -78q0 -72 -76 -72h-459v-378h574q88 0 88 -75t-88 -75h-639q-53 0 -69 17q-15 18 -15 75z" />
    <glyph glyph-name="F.smcp" horiz-adv-x="987" 
d="M166 61v988q0 98 84 98h604q76 0 76 -75t-76 -75h-537v-417h406q76 0 76 -76t-76 -76h-406v-367q1 -61 -75 -61t-76 61z" />
    <glyph glyph-name="G.smcp" horiz-adv-x="1306" 
d="M764 492q-90 0 -90 74t96 75h342q80 0 106 -48t25 -134q0 -203 -157 -342q-158 -139 -412 -139t-421 174q-167 176 -167 416t165 421q165 182 424 182t441 -188q35 -35 35 -68t-22 -59q-21 -26 -57 -27q-36 0 -73 33q-161 146 -335 146t-292 -131t-118 -315t124 -306
q124 -121 302 -121q220 0 344 145q66 77 66 181q-1 29 -9 31h-317z" />
    <glyph glyph-name="H.smcp" horiz-adv-x="1273" 
d="M166 74v1003q0 76 75 76t74 -76v-415h641v415q0 76 76 76t76 -76v-1003q0 -74 -76 -74t-76 74v436h-641v-436q-1 -74 -75 -74t-74 74z" />
    <glyph glyph-name="I.smcp" horiz-adv-x="491" 
d="M166 76v999q0 76 80 76t80 -76v-999q0 -76 -80 -76t-80 76z" />
    <glyph glyph-name="J.smcp" horiz-adv-x="837" 
d="M682 1075v-770q0 -152 -95 -242t-253 -90t-273 103q-25 20 -24 57q0 78 69 78q16 0 86 -47t154 -47t133 50t49 138v770q0 76 77 76t77 -76z" />
    <glyph glyph-name="L.smcp" horiz-adv-x="1073" 
d="M166 117v960q0 76 75 76t74 -76v-927h658q76 0 76 -75t-76 -75h-707q-100 0 -100 117z" />
    <glyph glyph-name="M.smcp" horiz-adv-x="1619" 
d="M807 0q-53 0 -84 88l-303 891l-189 -893q-13 -84 -83 -84t-70 70q0 16 2 24l203 924q25 154 127 154t147 -138l254 -760l262 760q47 133 151 133t124 -149l190 -928l2 -16q0 -33 -22 -53t-54 -21q-68 0 -82 82l-174 893l-317 -889q-31 -88 -84 -88z" />
    <glyph glyph-name="N.smcp" horiz-adv-x="1339" 
d="M168 78v1003q0 90 74 90q57 0 106 -73l676 -828v822q0 78 74 77q76 0 76 -77v-1002q0 -90 -74 -90q-59 0 -103 61l-680 824v-807q-1 -78 -75 -78t-74 78z" />
    <glyph glyph-name="O.smcp" horiz-adv-x="1361" 
d="M1116 561q0 183 -123 315t-317 132t-312 -119q-120 -119 -120 -311t124 -320q124 -129 316 -129t312 124t120 308zM684 1157q254 0 423 -170t169 -417q0 -246 -165 -418t-430 -172t-430 173t-165 418q0 205 143 387q70 88 189 144t266 55z" />
    <glyph glyph-name="P.smcp" horiz-adv-x="1144" 
d="M614 999h-299v-479h332q133 0 208 70t75 167t-83 169t-233 73zM166 76v991q0 82 84 82h393q201 0 320 -113q119 -112 119 -270t-114 -277t-313 -118h-340v-295q-1 -76 -75 -76t-74 76z" />
    <glyph glyph-name="Q.smcp" horiz-adv-x="1361" 
d="M1116 559q0 185 -123 317t-317 132t-312 -119q-120 -119 -120 -311t124 -320q124 -129 320 -129q127 0 232 61l-86 82q-29 29 -29 63q1 33 25 59t55 26t55 -25l94 -96q82 115 82 260zM684 1157q254 0 423 -170q169 -171 169 -407t-137 -398l86 -94q47 -55 4 -105
q-18 -22 -49 -22t-50 19l-102 102q-143 -102 -344 -102q-268 0 -433 173t-165 418q0 205 143 387q70 88 189 144t266 55z" />
    <glyph glyph-name="R.smcp" horiz-adv-x="1157" 
d="M606 1020h-291v-451h291q127 -1 218 59t91 174t-92 166t-217 52zM166 92v995q0 82 117 82h307q221 0 346 -92t125 -276q0 -236 -252 -330l219 -334q18 -23 19 -71q0 -68 -66 -68q-37 0 -70 41l-256 381h-340v-328q-1 -92 -75 -92t-74 92z" />
    <glyph glyph-name="S.smcp" horiz-adv-x="989" 
d="M498 133q98 0 174 42t76 121t-64 121t-154 75q-246 90 -285 120t-77 64q-66 59 -68 160q0 164 118 248t297 85q179 0 314 -73q39 -20 39 -64t-22 -63q-22 -21 -48 -21q-28 0 -48 13q-92 53 -221 53q-271 0 -271 -160q0 -42 28 -65q54 -44 96 -62q42 -19 61 -27t67 -26
t65 -25q340 -133 340 -327q0 -174 -124 -260q-125 -85 -306 -85t-372 121q-27 18 -27 60t19 66t48 24t62 -23q139 -92 283 -92z" />
    <glyph glyph-name="T.smcp" horiz-adv-x="997" 
d="M424 86v911h-301q-82 0 -82 75t82 75h756q78 0 77 -76q0 -74 -77 -74h-304v-911q0 -86 -73 -86q-78 0 -78 86z" />
    <glyph glyph-name="U.smcp" horiz-adv-x="1288" 
d="M145 584v479q0 88 84 88q78 0 78 -88v-463q0 -248 96 -354t252 -106t241 102q85 104 85 358v463q0 88 82 88t82 -88v-479q0 -606 -508 -607q-223 0 -357 144t-135 463z" />
    <glyph glyph-name="V.smcp" horiz-adv-x="1089" 
d="M944 1155q40 -1 77 -33q36 -32 15 -75l-374 -920q-51 -127 -117 -127q-59 0 -105 109l-387 938q-6 18 -6 36q0 74 78 74q60 0 80 -61l340 -842l336 842q23 59 63 59z" />
    <glyph glyph-name="W.smcp" horiz-adv-x="1656" 
d="M1505 1176q33 0 62 -28t16 -71l-237 -973q-10 -44 -46 -74t-82 -30q-44 0 -79 24t-47 70l-263 838l-260 -805q-41 -131 -135 -131q-45 0 -80 34t-49 87l-233 960q-2 6 -2 30t22 44q23 20 55 20q68 1 80 -75l211 -891l287 889q27 78 108 78t107 -78l277 -887l204 885
q12 84 84 84z" />
    <glyph glyph-name="X.smcp" horiz-adv-x="970" 
d="M121 1106q0 28 20 46q21 19 57 19t62 -36l232 -369l206 367q25 37 59 37q35 0 57 -22t22 -50t-17 -49l-246 -400l316 -518q29 -45 29 -76q0 -57 -60 -57q-45 0 -78 45l-297 467l-284 -465q-31 -47 -78 -47q-59 0 -60 59q0 33 25 70l311 504l-258 420q-18 27 -18 55z" />
    <glyph glyph-name="Y.smcp" horiz-adv-x="1058" 
d="M451 88v270l-390 682q-14 27 -14 54q0 72 68 71q39 0 63 -43l359 -598l350 594q29 47 74 47q68 0 67 -65q0 -23 -12 -43l-412 -699v-270q0 -88 -76 -88t-77 88z" />
    <glyph glyph-name="Z.smcp" horiz-adv-x="1077" 
d="M170 999q-78 0 -78 75t78 75h721q102 0 102 -66q0 -37 -41 -100l-694 -833h682q80 0 80 -72q0 -78 -80 -78h-805q-72 0 -72 86q0 45 23 80l694 833h-610z" />
    <glyph glyph-name="Alpha.smcp" horiz-adv-x="1259" 
d="M101 0q-65 0 -64 72q0 16 8 41l463 968q33 93 119 93t118 -93l480 -968q8 -18 8 -43q0 -70 -70 -70q-55 0 -73 49l-140 262h-645l-110 -233q-29 -78 -94 -78zM625 973l-248 -506h500z" />
    <glyph glyph-name="Beta.smcp" horiz-adv-x="1179" 
d="M317 662h246q279 0 279 178q0 68 -54 112t-176 45h-295v-335zM317 512v-362h347q130 0 202 49t72 136t-90 132t-215 45h-316zM166 100v949q0 98 84 98h375q159 0 267 -69t107 -210q0 -92 -60 -160t-163 -100q148 -4 238 -86t90 -206t-104 -220t-275 -96h-440
q-67 0 -93 17t-26 83z" />
    <glyph glyph-name="Gamma.smcp" horiz-adv-x="1005" 
d="M166 76v968q0 98 84 99h645q35 0 57 -23t23 -55q0 -72 -80 -72h-578v-917q1 -76 -75 -76t-76 76z" />
    <glyph glyph-name="Delta.smcp" horiz-adv-x="1228" 
d="M1079 0h-948q-94 0 -94 51q0 18 8 37l449 989q34 94 120 94t113 -94l467 -989q8 -18 8 -39q0 -49 -123 -49zM608 952l-346 -802h713z" />
    <glyph glyph-name="Epsilon.smcp" horiz-adv-x="1044" 
d="M166 92v963q0 92 84 92h622q76 0 76 -75t-76 -75h-557v-319h459q76 0 76 -78q0 -72 -76 -72h-459v-378h574q88 0 88 -75t-88 -75h-639q-53 0 -69 17q-15 18 -15 75z" />
    <glyph glyph-name="Zeta.smcp" horiz-adv-x="1077" 
d="M170 999q-78 0 -78 75t78 75h721q102 0 102 -66q0 -37 -41 -100l-694 -833h682q80 0 80 -72q0 -78 -80 -78h-805q-72 0 -72 86q0 45 23 80l694 833h-610z" />
    <glyph glyph-name="Eta.smcp" horiz-adv-x="1275" 
d="M168 74v1013q0 76 75 76t74 -76v-425h641v425q0 76 76 76t76 -76v-1013q0 -74 -76 -74t-76 74v436h-641v-436q-1 -74 -75 -74t-74 74z" />
    <glyph glyph-name="Theta.smcp" horiz-adv-x="1361" 
d="M1116 561q0 183 -123 315t-317 132t-312 -119q-120 -119 -120 -311t124 -320q124 -129 316 -129t312 124t120 308zM684 1157q254 0 423 -170t169 -417q0 -246 -165 -418t-430 -172t-430 173t-165 418q0 205 143 387q70 88 189 144t266 55zM963 502h-568q-76 0 -76 76
t76 75h568q76 0 75 -78q1 -73 -75 -73z" />
    <glyph glyph-name="Iota.smcp" horiz-adv-x="481" 
d="M166 76v999q0 76 75 76t74 -76v-999q-1 -76 -75 -76t-74 76z" />
    <glyph glyph-name="Kappa.smcp" horiz-adv-x="1247" 
d="M166 66v1030q0 63 76 63t75 -63v-607l715 648q20 18 50 18t56 -26q26 -25 26 -55t-21 -48l-414 -354l449 -539q24 -23 24 -57t-28 -57q-63 -50 -117 14l-445 532l-295 -266v-233q1 -66 -75 -66t-76 66z" />
    <glyph glyph-name="Lambda.smcp" horiz-adv-x="1257" 
d="M101 0q-65 0 -64 72q0 16 8 41l463 968q33 93 119 93t118 -93l480 -968q8 -18 8 -46q0 -27 -22 -47t-56 -20q-56 0 -74 49l-456 924l-430 -895q-29 -78 -94 -78z" />
    <glyph glyph-name="Mu.smcp" horiz-adv-x="1619" 
d="M807 0q-53 0 -84 88l-303 891l-189 -893q-13 -84 -83 -84t-70 70q0 16 2 24l203 924q25 154 127 154t147 -138l254 -760l262 760q47 133 151 133t124 -149l190 -928l2 -16q0 -33 -22 -53t-54 -21q-68 0 -82 82l-174 893l-317 -889q-31 -88 -84 -88z" />
    <glyph glyph-name="Nu.smcp" horiz-adv-x="1339" 
d="M168 78v1003q0 90 74 90q57 0 106 -73l676 -828v822q0 78 74 77q76 0 76 -77v-1002q0 -90 -74 -90q-59 0 -103 61l-680 824v-807q-1 -78 -75 -78t-74 78z" />
    <glyph glyph-name="Xi.smcp" horiz-adv-x="1234" 
d="M145 156h947q86 0 86 -76t-86 -76h-947q-88 0 -88 76t88 76zM305 659h606q76 -1 76 -77t-76 -76h-606q-74 0 -74 76t74 77zM162 1149h911q76 0 76 -75t-76 -75h-911q-76 0 -76 75t76 75z" />
    <glyph glyph-name="Omicron.smcp" horiz-adv-x="1361" 
d="M1116 561q0 183 -123 315t-317 132t-312 -119q-120 -119 -120 -311t124 -320q124 -129 316 -129t312 124t120 308zM684 1157q254 0 423 -170t169 -417q0 -246 -165 -418t-430 -172t-430 173t-165 418q0 205 143 387q70 88 189 144t266 55z" />
    <glyph glyph-name="Pi.smcp" horiz-adv-x="1271" 
d="M240 1139h788q30 0 54 -24t24 -54v-985q0 -76 -75 -76t-75 76v909h-641v-909q0 -76 -77 -76q-72 0 -72 76v985q0 78 74 78z" />
    <glyph glyph-name="Rho.smcp" horiz-adv-x="1165" 
d="M635 999h-320v-479h353q133 0 208 70q74 70 74 167t-82 169t-233 73zM166 76v991q0 82 84 82h414q202 0 320 -113q118 -112 118 -270t-114 -277t-312 -118h-361v-295q-1 -76 -75 -76t-74 76z" />
    <glyph glyph-name="Sigma.smcp" horiz-adv-x="1095" 
d="M961 150q76 0 75 -78q0 -72 -75 -72h-828q-72 0 -72 86q0 45 23 80l371 387q14 25 14 43t-18 45l-324 340q-39 57 -39 100q0 68 105 68h741q76 0 76 -76t-76 -76h-612l325 -352q37 -53 6 -96l-385 -399h693z" />
    <glyph glyph-name="Tau.smcp" horiz-adv-x="997" 
d="M424 86v911h-301q-82 0 -82 75t82 75h756q78 0 77 -76q0 -74 -77 -74h-304v-911q0 -86 -73 -86q-78 0 -78 86z" />
    <glyph glyph-name="Upsilon.smcp" horiz-adv-x="1058" 
d="M451 88v270l-390 682q-14 27 -14 54q0 72 68 71q39 0 63 -43l359 -598l350 594q29 47 74 47q68 0 67 -65q0 -23 -12 -43l-412 -699v-270q0 -88 -76 -88t-77 88z" />
    <glyph glyph-name="Phi.smcp" 
d="M717 831v-473q360 0 360 232q0 113 -90 177t-270 64zM567 358v473q-180 -1 -271 -65t-91 -174t96 -172t266 -62zM567 973v110q0 76 76 76t76 -76q0 -4 -4 -110q233 -1 370 -107t137 -275t-136 -271q-138 -102 -369 -103v-139q0 -78 -75 -78t-75 78v139q-246 0 -377 101
q-131 100 -131 272q-1 172 137 278t371 105z" />
    <glyph glyph-name="Chi.smcp" horiz-adv-x="972" 
d="M121 1106q0 28 20 46q21 19 57 19t62 -36l232 -369l206 367q25 37 59 37q35 0 57 -22t22 -50t-17 -49l-246 -400l320 -516q29 -45 29 -76q0 -59 -64 -59q-45 0 -78 45l-297 467l-284 -465q-31 -47 -78 -47q-59 0 -60 59q0 33 25 70l311 504l-258 420q-18 27 -18 55z" />
    <glyph glyph-name="Psi.smcp" horiz-adv-x="1347" 
d="M748 1104v-696q210 0 282 114t72 363v172q0 76 77 76t76 -76v-199q0 -594 -507 -594v-190q0 -74 -75 -74t-75 74v190q-506 12 -506 594v199q0 73 75 73t75 -73v-172q0 -227 80 -353t276 -124v696q0 76 75 76t75 -76z" />
    <glyph glyph-name="Omega.smcp" horiz-adv-x="1398" 
d="M1229 0h-383q-55 0 -54 55t66 92q135 63 208 181t73 252q0 174 -118 299t-328 125q-211 0 -319 -121t-108 -269t77 -266q77 -117 214 -198q68 -38 69 -94t-55 -56h-397q-70 0 -70 75t70 75h178q-123 82 -186 202t-64 252q0 223 161 388t432 165t435 -167t164 -390
q0 -133 -63 -252t-187 -196h185q70 0 70 -76t-70 -76z" />
    <glyph glyph-name="Alphatonos.smcp" horiz-adv-x="1259" 
d="M101 0q-65 0 -64 72q0 16 8 41l463 968q33 93 119 93t118 -93l480 -968q8 -18 8 -43q0 -70 -70 -70q-55 0 -73 49l-140 262h-645l-110 -233q-29 -78 -94 -78zM625 973l-248 -506h500z" />
    <glyph glyph-name="Epsilontonos.smcp" horiz-adv-x="1044" 
d="M166 92v963q0 92 84 92h622q76 0 76 -75t-76 -75h-557v-319h459q76 0 76 -78q0 -72 -76 -72h-459v-378h574q88 0 88 -75t-88 -75h-639q-53 0 -69 17q-15 18 -15 75z" />
    <glyph glyph-name="Iotatonos.smcp" horiz-adv-x="481" 
d="M166 76v999q0 76 75 76t74 -76v-999q-1 -76 -75 -76t-74 76z" />
    <glyph glyph-name="Etatonos.smcp" horiz-adv-x="1275" 
d="M168 74v1013q0 76 75 76t74 -76v-425h641v425q0 76 76 76t76 -76v-1013q0 -74 -76 -74t-76 74v436h-641v-436q-1 -74 -75 -74t-74 74z" />
    <glyph glyph-name="Omicrontonos.smcp" horiz-adv-x="1361" 
d="M1116 561q0 183 -123 315t-317 132t-312 -119q-120 -119 -120 -311t124 -320q124 -129 316 -129t312 124t120 308zM684 1157q254 0 423 -170t169 -417q0 -246 -165 -418t-430 -172t-430 173t-165 418q0 205 143 387q70 88 189 144t266 55z" />
    <glyph glyph-name="Upsilontonos.smcp" horiz-adv-x="1058" 
d="M451 88v270l-390 682q-14 27 -14 54q0 72 68 71q39 0 63 -43l359 -598l350 594q29 47 74 47q68 0 67 -65q0 -23 -12 -43l-412 -699v-270q0 -88 -76 -88t-77 88z" />
    <glyph glyph-name="Omegatonos.smcp" horiz-adv-x="1398" 
d="M1229 0h-383q-55 0 -54 55t66 92q135 63 208 181t73 252q0 174 -118 299t-328 125q-211 0 -319 -121t-108 -269t77 -266q77 -117 214 -198q68 -38 69 -94t-55 -56h-397q-70 0 -70 75t70 75h178q-123 82 -186 202t-64 252q0 223 161 388t432 165t435 -167t164 -390
q0 -133 -63 -252t-187 -196h185q70 0 70 -76t-70 -76z" />
    <glyph glyph-name="Iotadieresis.smcp" horiz-adv-x="481" 
d="M166 76v999q0 76 75 76t74 -76v-999q-1 -76 -75 -76t-74 76z" />
    <glyph glyph-name="Upsilondieresis.smcp" horiz-adv-x="1058" 
d="M451 88v270l-390 682q-14 27 -14 54q0 72 68 71q39 0 63 -43l359 -598l350 594q29 47 74 47q68 0 67 -65q0 -23 -12 -43l-412 -699v-270q0 -88 -76 -88t-77 88z" />
    <glyph glyph-name="sigma1.smcp" horiz-adv-x="1095" 
d="M961 150q76 0 75 -78q0 -72 -75 -72h-828q-72 0 -72 86q0 45 23 80l371 387q14 25 14 43t-18 45l-324 340q-39 57 -39 100q0 68 105 68h741q76 0 76 -76t-76 -76h-612l325 -352q37 -53 6 -96l-385 -399h693z" />
    <glyph glyph-name="iotadieresistonos.smcp" horiz-adv-x="481" 
d="M166 76v999q0 76 75 76t74 -76v-999q-1 -76 -75 -76t-74 76z" />
    <glyph glyph-name="upsilondieresistonos.smcp" horiz-adv-x="1058" 
d="M451 88v270l-390 682q-14 27 -14 54q0 72 68 71q39 0 63 -43l359 -598l350 594q29 47 74 47q68 0 67 -65q0 -23 -12 -43l-412 -699v-270q0 -88 -76 -88t-77 88z" />
    <glyph glyph-name="zero.tnum" 
d="M643 133q88 0 156 66q115 112 158 367q54 323 -54 616q-37 100 -103 164q-67 63 -158 63t-162 -67q-70 -67 -106 -171q-66 -194 -68 -404q-1 -210 76 -411q38 -98 106 -160t155 -63zM639 1571h8q133 0 235 -76t155 -200q108 -248 108 -521t-112 -521q-56 -124 -157 -201
q-102 -77 -236 -77t-238 74q-103 74 -158 196q-109 242 -109 518t111 529q55 125 157 202q103 77 236 77z" />
    <glyph glyph-name="one.tnum" 
d="M1049 4h-797q-76 0 -76 68t76 67h330v1202l-201 -57q-20 -4 -39 -4t-39 18t-20 50q0 66 75 86q305 86 314 86q49 0 65 -41q10 -20 11 -105v-1235h301q80 0 79 -69q1 -66 -79 -66z" />
    <glyph glyph-name="two.tnum" 
d="M195 1143q0 188 133 305t304 117t300 -109t129 -291t-146 -374l-483 -635h576q76 0 76 -78t-78 -78h-678q-113 0 -113 74q0 37 31 76l557 757q90 123 90 245t-80 188q-79 66 -187 67q-108 0 -186 -73t-78 -201q0 -35 -22 -67t-60 -32t-62 34q-23 34 -23 75z" />
    <glyph glyph-name="three.tnum" 
d="M219 1219q-1 135 113 243t287 109q173 0 285 -117q112 -118 112 -300t-170 -327q115 -72 173 -178t58 -223q0 -182 -127 -316t-336 -135q-119 1 -214 53t-148 129t-53 132t20 77t49 21q53 0 76 -53q84 -195 268 -195q123 0 210 77t87 200t-62 209t-177 104q-25 4 -119 5
t-94 75t94 74t115 4q86 16 134 98q48 81 48 187t-66 176t-168 70t-165 -60t-63 -154t-79 -94q-88 0 -88 109z" />
    <glyph glyph-name="four.tnum" 
d="M803 543v805l-500 -805h500zM803 96v291h-584q-51 0 -80 28q-29 27 -29 69t27 77l535 862q59 96 157 97q57 0 95 -40t37 -108v-829h98q76 0 76 -77t-68 -77h-106v-293q0 -96 -79 -96t-79 96z" />
    <glyph glyph-name="five.tnum" 
d="M524 1516h439q35 0 55 -26t20 -63q0 -78 -75 -77h-422l-68 -396q68 16 156 17q219 1 341 -141t122 -344t-134 -356q-134 -155 -372 -155q-170 0 -297 85t-127 173q0 35 19 55t52 19q33 0 70 -49t123 -89t170 -40q143 0 238 104q94 103 94 241t-89 242t-249 103
q-58 0 -116 -17t-87 -18q-84 0 -84 76q0 18 105 574q14 82 116 82z" />
    <glyph glyph-name="six.tnum" 
d="M967 488q0 138 -83 238q-82 100 -232 101q-150 0 -227 -99t-77 -240t85 -251t226 -110q141 11 225 117t83 244zM702 979q180 0 300 -137t120 -348t-131 -365t-344 -154t-336 161q-123 162 -123 408t146 494q145 248 373 453q35 31 71 31t60 -22q25 -22 25 -54t-23 -55
q-127 -119 -243 -267t-167 -254q92 109 272 109z" />
    <glyph glyph-name="seven.tnum" 
d="M285 1518h725q38 0 66 -27t28 -60t-12 -63l-543 -1284q-37 -84 -98 -84q-72 0 -72 80q0 29 10 49l520 1223h-624q-94 0 -95 84q1 82 95 82z" />
    <glyph glyph-name="eight.tnum" 
d="M642 911q103 0 162 78q58 78 58 186t-65 171q-66 63 -158 63t-163 -63q-70 -63 -70 -172t66 -186t170 -77zM926 447q0 131 -81 221t-203 90t-204 -91t-82 -220t80 -219t207 -91q127 0 205 90t78 220zM644 1561q167 1 279 -105t111 -272q0 -199 -198 -336
q122 -57 192 -168t70 -242q0 -190 -131 -326t-329 -136t-326 132t-128 336q0 125 72 233t184 159q-199 123 -198 348q0 160 118 268t284 109z" />
    <glyph glyph-name="nine.tnum" 
d="M948 1030q0 158 -84 270q-84 111 -239 111q-156 0 -238 -112t-82 -263q0 -152 93 -248q94 -96 230 -96t228 90t92 248zM498 -37q-74 0 -74 74q0 37 39 72q139 121 257 273t154 247q-100 -90 -262 -90q-215 -1 -342 155t-127 365t127 359q126 150 350 151q224 0 354 -159
t130 -402q0 -154 -43 -310t-171 -352t-331 -360q-27 -23 -61 -23z" />
    <glyph glyph-name="zero.onum.tnum" 
d="M641 133q162 0 250 138t88 331t-89 336t-251 143t-252 -138t-90 -332t91 -336t253 -142zM637 1243h8q162 0 278 -93q220 -176 220 -538t-222 -541q-118 -95 -280 -95t-280 92q-226 179 -226 540q0 258 133 446t369 189z" />
    <glyph glyph-name="one.onum.tnum" 
d="M1049 4h-797q-76 0 -76 68t76 67h330v920l-201 -58q-20 -4 -39 -4q-19 1 -39 19t-20 49q0 66 75 86q305 86 314 86q49 0 65 -41q10 -20 11 -104v-953h301q80 0 79 -69q1 -66 -79 -66z" />
    <glyph glyph-name="two.onum.tnum" 
d="M197 836q0 188 133 305t304 117t300 -110q129 -108 129 -276q0 -48 -5 -80t-36 -96t-90 -131q-141 -163 -457 -409h535q76 0 76 -78t-78 -78h-678q-113 0 -113 74q0 37 31 76q315 270 445 395t166 183t36 130q0 110 -80 176q-79 66 -187 66t-186 -73t-77 -202
q0 -35 -22 -67q-23 -32 -61 -31q-38 0 -62 34q-23 34 -23 75z" />
    <glyph glyph-name="three.onum.tnum" 
d="M217 905q-1 135 113 243t287 109q173 -1 285 -117t112 -298t-170 -328q115 -72 173 -178t58 -223q0 -183 -127 -317t-336 -134q-117 0 -213 52t-149 129t-53 133q0 98 69 98q53 0 76 -54q84 -195 268 -194q123 0 210 77t87 200t-62 209t-177 104q-25 4 -119 5t-94 75
t94 74t115 3q86 17 134 99t48 188t-66 174q-66 70 -168 70t-166 -60t-63 -153q0 -94 -78 -94q-88 0 -88 108z" />
    <glyph glyph-name="four.onum.tnum" 
d="M813 276v805l-500 -805h500zM813 -170v291h-584q-51 -1 -79 27t-29 70q0 42 26 77l535 862q59 96 158 96q57 0 94 -40t37 -107v-830h98q76 0 76 -76t-68 -77h-106v-293q0 -96 -79 -96t-79 96z" />
    <glyph glyph-name="five.onum.tnum" 
d="M524 1229h439q35 0 55 -26t20 -62q0 -78 -75 -78h-422l-68 -395q68 16 156 16q219 0 341 -141t122 -343t-134 -357t-372 -154q-170 0 -297 85t-127 173q0 35 19 54t52 19t70 -48t123 -90q86 -40 170 -40q144 0 238 104t94 242q0 136 -89 240t-249 104q-58 0 -116 -17
t-87 -17q-84 0 -84 75q0 18 105 574q14 82 116 82z" />
    <glyph glyph-name="six.onum.tnum" 
d="M967 488q0 138 -83 238q-82 100 -232 101q-150 0 -227 -99t-77 -240t85 -251t226 -110q141 11 225 117t83 244zM702 979q180 0 300 -137t120 -348t-131 -365t-344 -154t-336 161q-123 162 -123 408t146 494q145 248 373 453q35 31 71 31t60 -22q25 -22 25 -54t-23 -55
q-127 -119 -243 -267t-167 -254q92 109 272 109z" />
    <glyph glyph-name="seven.onum.tnum" 
d="M283 1225h725q38 0 66 -27t28 -60t-12 -63l-543 -1284q-37 -84 -98 -84q-72 0 -72 80q0 29 10 49l520 1223h-624q-94 0 -95 84q1 82 95 82z" />
    <glyph glyph-name="eight.onum.tnum" 
d="M642 911q103 0 162 78q58 78 58 186t-65 171q-66 63 -158 63t-163 -63q-70 -63 -70 -172t66 -186t170 -77zM926 447q0 131 -81 221t-203 90t-204 -91t-82 -220t80 -219t207 -91q127 0 205 90t78 220zM644 1561q167 1 279 -105t111 -272q0 -199 -198 -336
q122 -57 192 -168t70 -242q0 -190 -131 -326t-329 -136t-326 132t-128 336q0 125 72 233t184 159q-199 123 -198 348q0 160 118 268t284 109z" />
    <glyph glyph-name="nine.onum.tnum" 
d="M946 708q0 158 -84 268t-240 111t-238 -111t-81 -264q0 -152 93 -247q94 -96 230 -96t228 90q92 91 92 249zM610 215q-215 0 -342 156q-127 157 -127 365t127 359q126 151 350 151t354 -160q130 -159 130 -402q0 -154 -43 -310t-171 -352t-331 -360q-27 -22 -61 -22
q-74 1 -74 73q0 37 39 72q139 121 257 273t154 247q-100 -90 -262 -90z" />
    <glyph glyph-name="K.smcp" horiz-adv-x="1247" 
d="M166 66v1030q0 63 76 63t75 -63v-607l715 648q20 18 50 18t56 -26q26 -25 26 -55t-21 -48l-414 -354l449 -539q24 -23 24 -57t-28 -57q-63 -50 -117 14l-445 532l-295 -266v-233q1 -66 -75 -66t-76 66z" />
    </font>
</defs>
</svg>
